<?xml version="1.0" standalone="no"?>
<!DOCTYPE svg PUBLIC "-//W3C//DTD SVG 1.1//EN" "http://www.w3.org/Graphics/SVG/1.1/DTD/svg11.dtd" >
<svg xmlns="http://www.w3.org/2000/svg" xmlns:xlink="http://www.w3.org/1999/xlink" version="1.1">
<metadata>
Created by FontForge 20190801 at Tue Jul 31 11:31:38 2018
 By Jimmy Wärting
Pangram Pangram\(R\)
</metadata>
<defs>
<font id="MonumentExtended-Regular" horiz-adv-x="257" >
  <font-face 
    font-family="Monument Extended"
    font-weight="400"
    font-stretch="normal"
    units-per-em="1000"
    panose-1="0 0 5 0 0 0 0 0 0 0"
    ascent="800"
    descent="-200"
    x-height="589"
    cap-height="700"
    bbox="-1063 -335 2309 1082"
    underline-thickness="50"
    underline-position="-100"
    unicode-range="U+0020-25CA"
  />
<missing-glyph horiz-adv-x="550" 
d="M451 800v-1100h-349v1100h349zM366 726h-181v-36h71v-41h-72v-36h182v36h-72v41h72v36zM294 584h-110v-114h182v37h-72v77zM256 547v-40h-36v40h36zM366 440h-182v-36h72v-41h-72v-36h110v77h72v36zM366 374h-36v-72h-146v-38h182v110zM366 240h-110v-61h38v25h36v-52
h-110v88h-36v-124h182v124zM366 50h-182v-124h182v124zM330 14v-52h-110v52h110zM366 -100h-182v-36h77l-77 -52v-36h182v36h-112l77 52h35v36z" />
    <glyph glyph-name=".notdef" horiz-adv-x="550" 
d="M451 800v-1100h-349v1100h349zM366 726h-181v-36h71v-41h-72v-36h182v36h-72v41h72v36zM294 584h-110v-114h182v37h-72v77zM256 547v-40h-36v40h36zM366 440h-182v-36h72v-41h-72v-36h110v77h72v36zM366 374h-36v-72h-146v-38h182v110zM366 240h-110v-61h38v25h36v-52
h-110v88h-36v-124h182v124zM366 50h-182v-124h182v124zM330 14v-52h-110v52h110zM366 -100h-182v-36h77l-77 -52v-36h182v36h-112l77 52h35v36z" />
    <glyph glyph-name="A" unicode="A" horiz-adv-x="1032" 
d="M800 0l-75 149h-419l-75 -149h-198l361 700h243l362 -700h-199zM373 283h285l-142 284z" />
    <glyph glyph-name="Aacute" unicode="&#xc1;" horiz-adv-x="1032" 
d="M710 980v-118l-389 -80v118zM800 0l-75 149h-419l-75 -149h-198l361 700h243l362 -700h-199zM373 283h285l-142 284z" />
    <glyph glyph-name="Abreve" unicode="&#x102;" horiz-adv-x="1032" 
d="M516 767c-124 0 -227 40 -227 214h108c0 -81 45 -111 119 -111s118 30 118 111h109c0 -174 -103 -214 -227 -214zM800 0l-75 149h-419l-75 -149h-198l361 700h243l362 -700h-199zM373 283h285l-142 284z" />
    <glyph glyph-name="Acircumflex" unicode="&#xc2;" horiz-adv-x="1032" 
d="M723 782l-207 80l-207 -80v118l207 80l207 -80v-118zM800 0l-75 149h-419l-75 -149h-198l361 700h243l362 -700h-199zM373 283h285l-142 284z" />
    <glyph glyph-name="Adieresis" unicode="&#xc4;" horiz-adv-x="1032" 
d="M475 944v-146h-177v146h177zM735 944v-146h-177v146h177zM800 0l-75 149h-419l-75 -149h-198l361 700h243l362 -700h-199zM373 283h285l-142 284z" />
    <glyph glyph-name="Agrave" unicode="&#xc0;" horiz-adv-x="1032" 
d="M710 900v-118l-389 80v118zM800 0l-75 149h-419l-75 -149h-198l361 700h243l362 -700h-199zM373 283h285l-142 284z" />
    <glyph glyph-name="Amacron" unicode="&#x100;" horiz-adv-x="1032" 
d="M750 910v-118h-469v118h469zM800 0l-75 149h-419l-75 -149h-198l361 700h243l362 -700h-199zM373 283h285l-142 284z" />
    <glyph glyph-name="Aogonek" unicode="&#x104;" horiz-adv-x="1032" 
d="M881 -63c0 -50 77 -50 160 -50v-117c-187 0 -288 19 -288 117c0 47 29 80 80 113h-33l-75 149h-419l-75 -149h-198l361 700h243l362 -700h-71c-21 -17 -47 -37 -47 -63zM373 283h285l-142 284z" />
    <glyph glyph-name="Aring" unicode="&#xc5;" horiz-adv-x="1032" 
d="M516 771c-157 0 -210 49 -210 132s53 132 210 132c156 0 210 -49 210 -132s-54 -132 -210 -132zM516 956c-65 0 -102 -13 -102 -53s37 -53 102 -53s101 13 101 53s-36 53 -101 53zM800 0l-75 149h-419l-75 -149h-198l361 700h243l362 -700h-199zM373 283h285l-142 284z
" />
    <glyph glyph-name="Atilde" unicode="&#xc3;" horiz-adv-x="1032" 
d="M427 870c-42 0 -55 -32 -55 -89h-146c0 111 44 210 157 210c114 0 141 -99 221 -99c43 0 56 32 56 89h146c0 -111 -45 -210 -157 -210c-115 0 -142 99 -222 99zM800 0l-75 149h-419l-75 -149h-198l361 700h243l362 -700h-199zM373 283h285l-142 284z" />
    <glyph glyph-name="AE" unicode="&#xc6;" horiz-adv-x="1403" 
d="M1370 557h-560v-142h560v-130h-560v-142h560v-143h-740v148h-325l-71 -148h-201l341 700h996v-143zM630 561h-127l-133 -278h260v278z" />
    <glyph glyph-name="B" unicode="B" horiz-adv-x="944" 
d="M812 380c60 -37 99 -95 99 -176c0 -118 -69 -204 -228 -204h-640v700h616c159 0 208 -81 208 -184c0 -49 -20 -97 -55 -136zM223 570v-145h371h1c48 0 92 0 92 73c0 72 -44 72 -93 72h-371zM639 139c48 0 92 0 92 74s-44 74 -92 74h-416v-148h416z" />
    <glyph glyph-name="C" unicode="C" horiz-adv-x="943" 
d="M33 351c0 232 132 359 440 359c279 0 419 -106 437 -308h-183c-17 113 -104 157 -254 157c-183 0 -260 -65 -260 -208c0 -144 78 -210 260 -210c149 0 237 45 254 159h183c-18 -203 -158 -310 -437 -310c-308 0 -440 128 -440 361z" />
    <glyph glyph-name="Cacute" unicode="&#x106;" horiz-adv-x="943" 
d="M277 900l389 80v-118l-389 -80v118zM33 351c0 232 132 359 440 359c279 0 419 -106 437 -308h-183c-17 113 -104 157 -254 157c-183 0 -260 -65 -260 -208c0 -144 78 -210 260 -210c149 0 237 45 254 159h183c-18 -203 -158 -310 -437 -310c-308 0 -440 128 -440 361z
" />
    <glyph glyph-name="Ccaron" unicode="&#x10c;" horiz-adv-x="943" 
d="M679 864l-207 -80l-207 80v118l207 -80l207 80v-118zM473 141c149 0 237 45 254 159h183c-18 -203 -158 -310 -437 -310c-308 0 -440 128 -440 361c0 232 132 359 440 359c279 0 419 -106 437 -308h-183c-17 113 -104 157 -254 157c-183 0 -260 -65 -260 -208
c0 -144 78 -210 260 -210z" />
    <glyph glyph-name="Ccedilla" unicode="&#xc7;" horiz-adv-x="943" 
d="M473 141c149 0 237 45 254 159h183c-17 -189 -139 -295 -381 -308l-12 -39c60 19 177 28 177 -69c0 -114 -162 -133 -316 -114v85c131 -19 187 0 187 38c0 24 -26 32 -104 14l-59 58l11 27c-265 16 -380 142 -380 359c0 232 132 359 440 359c279 0 419 -106 437 -308
h-183c-17 113 -104 157 -254 157c-183 0 -260 -65 -260 -208c0 -144 78 -210 260 -210z" />
    <glyph glyph-name="Cdotaccent" unicode="&#x10a;" horiz-adv-x="943" 
d="M375 944h194v-146h-194v146zM33 351c0 232 132 359 440 359c279 0 419 -106 437 -308h-183c-17 113 -104 157 -254 157c-183 0 -260 -65 -260 -208c0 -144 78 -210 260 -210c149 0 237 45 254 159h183c-18 -203 -158 -310 -437 -310c-308 0 -440 128 -440 361z" />
    <glyph glyph-name="D" unicode="D" horiz-adv-x="924" 
d="M551 700c181 0 340 -112 340 -350s-159 -350 -340 -350h-508v700h508zM483 151c136 0 228 29 228 199s-92 199 -228 199h-260v-398h260z" />
    <glyph glyph-name="Eth" unicode="&#xd0;" horiz-adv-x="1001" 
d="M624 700c181 0 340 -112 340 -350s-159 -350 -340 -350h-508v291h-73v118h73v291h508zM556 151c136 0 228 29 228 199s-92 199 -228 199h-260v-140h227v-118h-227v-140h260z" />
    <glyph glyph-name="Dcaron" unicode="&#x10e;" horiz-adv-x="924" 
d="M604 864l-207 -80l-207 80v118l207 -80l207 80v-118zM551 700c181 0 340 -112 340 -350s-159 -350 -340 -350h-508v700h508zM483 151c136 0 228 29 228 199s-92 199 -228 199h-260v-398h260z" />
    <glyph glyph-name="Dcroat" unicode="&#x110;" horiz-adv-x="1001" 
d="M624 700c181 0 340 -112 340 -350s-159 -350 -340 -350h-508v291h-73v118h73v291h508zM556 151c136 0 228 29 228 199s-92 199 -228 199h-260v-140h227v-118h-227v-140h260z" />
    <glyph glyph-name="E" unicode="E" horiz-adv-x="816" 
d="M783 557h-560v-142h560v-130h-560v-142h560v-143h-740v700h740v-143z" />
    <glyph glyph-name="Eacute" unicode="&#xc9;" horiz-adv-x="816" 
d="M607 980v-118l-389 -80v118zM783 557h-560v-142h560v-130h-560v-142h560v-143h-740v700h740v-143z" />
    <glyph glyph-name="Ecaron" unicode="&#x11a;" horiz-adv-x="816" 
d="M620 864l-207 -80l-207 80v118l207 -80l207 80v-118zM783 557h-560v-142h560v-130h-560v-142h560v-143h-740v700h740v-143z" />
    <glyph glyph-name="Ecircumflex" unicode="&#xca;" horiz-adv-x="816" 
d="M620 782l-207 80l-207 -80v118l207 80l207 -80v-118zM783 557h-560v-142h560v-130h-560v-142h560v-143h-740v700h740v-143z" />
    <glyph glyph-name="Edieresis" unicode="&#xcb;" horiz-adv-x="816" 
d="M372 944v-146h-177v146h177zM632 944v-146h-177v146h177zM783 557h-560v-142h560v-130h-560v-142h560v-143h-740v700h740v-143z" />
    <glyph glyph-name="Edotaccent" unicode="&#x116;" horiz-adv-x="816" 
d="M510 944v-146h-194v146h194zM783 557h-560v-142h560v-130h-560v-142h560v-143h-740v700h740v-143z" />
    <glyph glyph-name="Egrave" unicode="&#xc8;" horiz-adv-x="816" 
d="M607 900v-118l-389 80v118zM783 557h-560v-142h560v-130h-560v-142h560v-143h-740v700h740v-143z" />
    <glyph glyph-name="Emacron" unicode="&#x112;" horiz-adv-x="816" 
d="M647 910v-118h-469v118h469zM783 557h-560v-142h560v-130h-560v-142h560v-143h-740v700h740v-143z" />
    <glyph glyph-name="Eogonek" unicode="&#x118;" horiz-adv-x="816" 
d="M646 -63c0 -50 77 -50 160 -50v-117c-187 0 -288 19 -288 117c0 47 29 80 80 113h-555v700h740v-143h-560v-142h560v-130h-560v-142h560v-143h-90c-21 -17 -47 -37 -47 -63z" />
    <glyph glyph-name="F" unicode="F" horiz-adv-x="816" 
d="M783 549h-560v-178h500v-152h-500v-219h-180v700h740v-151z" />
    <glyph glyph-name="G" unicode="G" horiz-adv-x="943" 
d="M466 258v117h444v-375h-133l-8 110c-66 -72 -171 -120 -320 -120c-258 0 -416 128 -416 360s158 360 446 360c280 0 420 -109 431 -283h-183c-10 53 -58 132 -248 132c-234 0 -266 -129 -266 -213c0 -85 33 -217 266 -217c174 0 244 76 248 129h-261z" />
    <glyph glyph-name="Gbreve" unicode="&#x11e;" horiz-adv-x="943" 
d="M472 767c-124 0 -227 40 -227 214h108c0 -81 45 -111 119 -111s118 30 118 111h109c0 -174 -103 -214 -227 -214zM466 258v117h444v-375h-133l-8 110c-66 -72 -171 -120 -320 -120c-258 0 -416 128 -416 360s158 360 446 360c280 0 420 -109 431 -283h-183
c-10 53 -58 132 -248 132c-234 0 -266 -129 -266 -213c0 -85 33 -217 266 -217c174 0 244 76 248 129h-261z" />
    <glyph glyph-name="Gcommaaccent" unicode="&#x122;" horiz-adv-x="943" 
d="M466 258v117h444v-375h-133l-8 110c-66 -72 -171 -120 -320 -120c-258 0 -416 128 -416 360s158 360 446 360c280 0 420 -109 431 -283h-183c-10 53 -58 132 -248 132c-234 0 -266 -129 -266 -213c0 -85 33 -217 266 -217c174 0 244 76 248 129h-261zM395 -225v108h154
v-108l-80 -110h-74l56 110h-56z" />
    <glyph glyph-name="Gdotaccent" unicode="&#x120;" horiz-adv-x="943" 
d="M569 944v-146h-194v146h194zM466 258v117h444v-375h-133l-8 110c-66 -72 -171 -120 -320 -120c-258 0 -416 128 -416 360s158 360 446 360c280 0 420 -109 431 -283h-183c-10 53 -58 132 -248 132c-234 0 -266 -129 -266 -213c0 -85 33 -217 266 -217
c174 0 244 76 248 129h-261z" />
    <glyph glyph-name="H" unicode="H" horiz-adv-x="1016" 
d="M793 700h180v-700h-180v274h-570v-274h-180v700h180v-274h570v274z" />
    <glyph glyph-name="Hbar" unicode="&#x126;" horiz-adv-x="1016" 
d="M1008 629v-118h-35v-511h-180v274h-570v-274h-180v511h-35v118h35v71h180v-71h570v71h180v-71h35zM793 426v85h-570v-85h570z" />
    <glyph glyph-name="I" unicode="I" horiz-adv-x="266" 
d="M223 700v-700h-180v700h180z" />
    <glyph glyph-name="Iacute" unicode="&#xcd;" horiz-adv-x="266" 
d="M-62 900l389 80v-118l-389 -80v118zM223 700v-700h-180v700h180z" />
    <glyph glyph-name="Icircumflex" unicode="&#xce;" horiz-adv-x="266" 
d="M133 980l207 -80v-118l-207 80l-207 -80v118zM43 0v700h180v-700h-180z" />
    <glyph glyph-name="Idieresis" unicode="&#xcf;" horiz-adv-x="266" 
d="M-85 944h177v-146h-177v146zM175 944h177v-146h-177v146zM223 700v-700h-180v700h180z" />
    <glyph glyph-name="Idotaccent" unicode="&#x130;" horiz-adv-x="266" 
d="M36 944h194v-146h-194v146zM223 700v-700h-180v700h180z" />
    <glyph glyph-name="Igrave" unicode="&#xcc;" horiz-adv-x="266" 
d="M327 900v-118l-389 80v118zM223 700v-700h-180v700h180z" />
    <glyph glyph-name="Imacron" unicode="&#x12a;" horiz-adv-x="266" 
d="M-102 910h469v-118h-469v118zM223 700v-700h-180v700h180z" />
    <glyph glyph-name="Iogonek" unicode="&#x12e;" horiz-adv-x="266" 
d="M155 -63c0 -50 77 -50 160 -50v-117c-187 0 -288 19 -288 117c0 47 29 80 80 113h-64v700h180v-700h-21c-21 -17 -47 -37 -47 -63z" />
    <glyph glyph-name="J" unicode="J" horiz-adv-x="926" 
d="M883 700v-349c0 -243 -133 -361 -420 -361c-288 0 -420 117 -420 361h180c0 -98 27 -210 240 -210s240 113 240 210v198h-332v151h512z" />
    <glyph glyph-name="K" unicode="K" horiz-adv-x="1028" 
d="M995 700l-424 -311l424 -389h-249l-308 291l-215 -157v-134h-180v700h180v-363l499 363h273z" />
    <glyph glyph-name="Kcommaaccent" unicode="&#x136;" horiz-adv-x="1028" 
d="M995 700l-424 -311l424 -389h-249l-308 291l-215 -157v-134h-180v700h180v-363l499 363h273zM442 -225v108h154v-108l-80 -110h-74l56 110h-56z" />
    <glyph glyph-name="L" unicode="L" horiz-adv-x="796" 
d="M223 151h540v-151h-720v700h180v-549z" />
    <glyph glyph-name="Lacute" unicode="&#x139;" horiz-adv-x="796" 
d="M432 980v-118l-389 -80v118zM223 151h540v-151h-720v700h180v-549z" />
    <glyph glyph-name="Lcaron" unicode="&#x13d;" horiz-adv-x="796" 
d="M445 864l-207 -80l-207 80v118l207 -80l207 80v-118zM223 151h540v-151h-720v700h180v-549z" />
    <glyph glyph-name="Lcommaaccent" unicode="&#x13b;" horiz-adv-x="796" 
d="M223 151h540v-151h-720v700h180v-549zM326 -225v108h154v-108l-80 -110h-74l56 110h-56z" />
    <glyph glyph-name="Lslash" unicode="&#x141;" horiz-adv-x="889" 
d="M306 151h540v-151h-720v250l-83 -34v146l83 34v304h180v-230l259 107v-146l-259 -107v-173z" />
    <glyph glyph-name="M" unicode="M" horiz-adv-x="1158" 
d="M1115 700v-700h-180v480l-291 -480h-130l-291 480v-480h-180v700h243l293 -494l293 494h243z" />
    <glyph glyph-name="N" unicode="N" horiz-adv-x="988" 
d="M765 700h180v-700h-245l-477 525v-525h-180v700h244l478 -526v526z" />
    <glyph glyph-name="Nacute" unicode="&#x143;" horiz-adv-x="988" 
d="M688 980v-118l-389 -80v118zM765 700h180v-700h-245l-477 525v-525h-180v700h244l478 -526v526z" />
    <glyph glyph-name="Ncaron" unicode="&#x147;" horiz-adv-x="988" 
d="M701 864l-207 -80l-207 80v118l207 -80l207 80v-118zM765 700h180v-700h-245l-477 525v-525h-180v700h244l478 -526v526z" />
    <glyph glyph-name="Ncommaaccent" unicode="&#x145;" horiz-adv-x="988" 
d="M765 700h180v-700h-245l-477 525v-525h-180v700h244l478 -526v526zM417 -225v108h154v-108l-80 -110h-74l56 110h-56z" />
    <glyph glyph-name="Eng" unicode="&#x14a;" horiz-adv-x="988" 
d="M765 700h180v-700c0 -173 -82 -270 -278 -270c-59 0 -120 7 -177 21v138c49 -10 79 -16 147 -16c106 0 128 47 128 127h-65l-477 525v-525h-180v700h244l478 -526v526z" />
    <glyph glyph-name="Ntilde" unicode="&#xd1;" horiz-adv-x="988" 
d="M405 870c-42 0 -55 -32 -55 -89h-146c0 111 44 210 157 210c114 0 141 -99 221 -99c43 0 56 32 56 89h146c0 -111 -45 -210 -157 -210c-115 0 -142 99 -222 99zM765 700h180v-700h-245l-477 525v-525h-180v700h244l478 -526v526z" />
    <glyph glyph-name="O" unicode="O" horiz-adv-x="946" 
d="M473 -10c-308 0 -440 128 -440 361c0 232 132 359 440 359c307 0 440 -128 440 -359c0 -232 -133 -361 -440 -361zM473 141c187 0 260 67 260 210c0 142 -72 208 -260 208s-260 -65 -260 -208c0 -144 73 -210 260 -210z" />
    <glyph glyph-name="Oacute" unicode="&#xd3;" horiz-adv-x="946" 
d="M278 900l389 80v-118l-389 -80v118zM473 -10c-308 0 -440 128 -440 361c0 232 132 359 440 359c307 0 440 -128 440 -359c0 -232 -133 -361 -440 -361zM473 141c187 0 260 67 260 210c0 142 -72 208 -260 208s-260 -65 -260 -208c0 -144 73 -210 260 -210z" />
    <glyph glyph-name="Ocircumflex" unicode="&#xd4;" horiz-adv-x="946" 
d="M680 782l-207 80l-207 -80v118l207 80l207 -80v-118zM473 710c307 0 440 -128 440 -359c0 -232 -133 -361 -440 -361c-308 0 -440 128 -440 361c0 232 132 359 440 359zM473 141c187 0 260 67 260 210c0 142 -72 208 -260 208s-260 -65 -260 -208
c0 -144 73 -210 260 -210z" />
    <glyph glyph-name="Odieresis" unicode="&#xd6;" horiz-adv-x="946" 
d="M255 944h177v-146h-177v146zM515 944h177v-146h-177v146zM473 -10c-308 0 -440 128 -440 361c0 232 132 359 440 359c307 0 440 -128 440 -359c0 -232 -133 -361 -440 -361zM473 141c187 0 260 67 260 210c0 142 -72 208 -260 208s-260 -65 -260 -208
c0 -144 73 -210 260 -210z" />
    <glyph glyph-name="Ograve" unicode="&#xd2;" horiz-adv-x="946" 
d="M667 900v-118l-389 80v118zM473 -10c-308 0 -440 128 -440 361c0 232 132 359 440 359c307 0 440 -128 440 -359c0 -232 -133 -361 -440 -361zM473 141c187 0 260 67 260 210c0 142 -72 208 -260 208s-260 -65 -260 -208c0 -144 73 -210 260 -210z" />
    <glyph glyph-name="Ohungarumlaut" unicode="&#x150;" horiz-adv-x="946" 
d="M236 912l207 80v-122l-207 -80v122zM503 912l207 80v-122l-207 -80v122zM473 -10c-308 0 -440 128 -440 361c0 232 132 359 440 359c307 0 440 -128 440 -359c0 -232 -133 -361 -440 -361zM473 141c187 0 260 67 260 210c0 142 -72 208 -260 208s-260 -65 -260 -208
c0 -144 73 -210 260 -210z" />
    <glyph glyph-name="Omacron" unicode="&#x14c;" horiz-adv-x="946" 
d="M238 910h469v-118h-469v118zM473 -10c-308 0 -440 128 -440 361c0 232 132 359 440 359c307 0 440 -128 440 -359c0 -232 -133 -361 -440 -361zM473 141c187 0 260 67 260 210c0 142 -72 208 -260 208s-260 -65 -260 -208c0 -144 73 -210 260 -210z" />
    <glyph glyph-name="Oslash" unicode="&#xd8;" horiz-adv-x="946" 
d="M649 692c183 -43 264 -160 264 -341c0 -232 -133 -361 -440 -361c-11 0 -23 0 -33 1l-23 -76h-148l28 93c-183 43 -264 161 -264 343c0 232 132 359 440 359c11 0 23 0 33 -1l23 76h148zM213 351c0 -103 38 -167 128 -194l120 402c-179 -3 -248 -68 -248 -208zM485 141
c178 3 248 70 248 210c0 102 -37 165 -128 192z" />
    <glyph glyph-name="Otilde" unicode="&#xd5;" horiz-adv-x="946" 
d="M183 781c0 111 44 210 157 210c114 0 141 -99 221 -99c43 0 56 32 56 89h146c0 -111 -45 -210 -157 -210c-115 0 -142 99 -222 99c-42 0 -55 -32 -55 -89h-146zM473 -10c-308 0 -440 128 -440 361c0 232 132 359 440 359c307 0 440 -128 440 -359
c0 -232 -133 -361 -440 -361zM473 141c187 0 260 67 260 210c0 142 -72 208 -260 208s-260 -65 -260 -208c0 -144 73 -210 260 -210z" />
    <glyph glyph-name="OE" unicode="&#x152;" horiz-adv-x="1555" 
d="M1522 557h-560v-142h560v-130h-560v-142h560v-143h-740v64c-71 -49 -173 -74 -309 -74c-308 0 -440 128 -440 361c0 232 132 359 440 359c136 0 238 -25 309 -73v63h740v-143zM473 141c187 0 260 67 260 210c0 142 -72 208 -260 208s-260 -65 -260 -208
c0 -144 73 -210 260 -210z" />
    <glyph glyph-name="P" unicode="P" horiz-adv-x="894" 
d="M593 700c159 0 268 -101 268 -257s-109 -256 -268 -256h-370v-187h-180v700h550zM543 338c54 0 138 0 138 105c0 106 -84 106 -138 106h-320v-211h320z" />
    <glyph glyph-name="Thorn" unicode="&#xde;" horiz-adv-x="894" 
d="M593 608c159 0 268 -101 268 -257s-109 -256 -268 -256h-370v-95h-180v700h180v-92h370zM543 246c54 0 138 0 138 105s-84 105 -138 105h-320v-210h320z" />
    <glyph glyph-name="Q" unicode="Q" horiz-adv-x="1016" 
d="M973 38l-127 -127l-121 121c-66 -28 -149 -42 -252 -42c-308 0 -440 128 -440 361c0 232 132 359 440 359c307 0 440 -128 440 -359c0 -80 -16 -148 -50 -203zM213 351c0 -144 73 -210 260 -210s260 67 260 210c0 142 -72 208 -260 208s-260 -65 -260 -208z" />
    <glyph glyph-name="R" unicode="R" horiz-adv-x="894" 
d="M861 443c0 -114 -58 -198 -152 -235l129 -208h-212l-113 187h-290v-187h-180v700h550c159 0 268 -101 268 -257zM223 549v-211h320c54 0 138 0 138 105c0 106 -84 106 -138 106h-320z" />
    <glyph glyph-name="Racute" unicode="&#x154;" horiz-adv-x="894" 
d="M623 980v-118l-389 -80v118zM861 443c0 -114 -58 -198 -152 -235l129 -208h-212l-113 187h-290v-187h-180v700h550c159 0 268 -101 268 -257zM223 549v-211h320c54 0 138 0 138 105c0 106 -84 106 -138 106h-320z" />
    <glyph glyph-name="Rcaron" unicode="&#x158;" horiz-adv-x="894" 
d="M636 864l-207 -80l-207 80v118l207 -80l207 80v-118zM861 443c0 -114 -58 -198 -152 -235l129 -208h-212l-113 187h-290v-187h-180v700h550c159 0 268 -101 268 -257zM223 549v-211h320c54 0 138 0 138 105c0 106 -84 106 -138 106h-320z" />
    <glyph glyph-name="Rcommaaccent" unicode="&#x156;" horiz-adv-x="894" 
d="M861 443c0 -114 -58 -198 -152 -235l129 -208h-212l-113 187h-290v-187h-180v700h550c159 0 268 -101 268 -257zM223 549v-211h320c54 0 138 0 138 105c0 106 -84 106 -138 106h-320zM352 -225v108h154v-108l-80 -110h-74l56 110h-56z" />
    <glyph glyph-name="S" unicode="S" horiz-adv-x="960" 
d="M33 241h180c0 -74 60 -108 288 -108c189 0 246 21 246 76c0 58 -40 68 -267 79c-305 14 -426 62 -426 219c0 154 157 203 419 203c264 0 424 -66 424 -239h-180c0 77 -77 96 -264 96c-177 0 -219 -17 -219 -69c0 -54 42 -64 246 -76c276 -15 447 -30 447 -207
c0 -187 -177 -225 -436 -225c-287 0 -458 49 -458 251z" />
    <glyph glyph-name="Sacute" unicode="&#x15a;" horiz-adv-x="960" 
d="M285 900l389 80v-118l-389 -80v118zM33 241h180c0 -74 60 -108 288 -108c189 0 246 21 246 76c0 58 -40 68 -267 79c-305 14 -426 62 -426 219c0 154 157 203 419 203c264 0 424 -66 424 -239h-180c0 77 -77 96 -264 96c-177 0 -219 -17 -219 -69c0 -54 42 -64 246 -76
c276 -15 447 -30 447 -207c0 -187 -177 -225 -436 -225c-287 0 -458 49 -458 251z" />
    <glyph glyph-name="Scaron" unicode="&#x160;" horiz-adv-x="960" 
d="M687 864l-207 -80l-207 80v118l207 -80l207 80v-118zM480 422c276 -15 447 -30 447 -207c0 -187 -177 -225 -436 -225c-287 0 -458 49 -458 251h180c0 -74 60 -108 288 -108c189 0 246 21 246 76c0 58 -40 68 -267 79c-305 14 -426 62 -426 219c0 154 157 203 419 203
c264 0 424 -66 424 -239h-180c0 77 -77 96 -264 96c-177 0 -219 -17 -219 -69c0 -54 42 -64 246 -76z" />
    <glyph glyph-name="Scedilla" unicode="&#x15e;" horiz-adv-x="960" 
d="M927 215c0 -176 -156 -220 -390 -225l-12 -37c60 19 177 28 177 -69c0 -114 -162 -133 -316 -114v85c131 -19 187 0 187 38c0 24 -26 32 -104 14l-59 58l10 26c-244 8 -387 65 -387 250h180c0 -74 60 -108 288 -108c189 0 246 21 246 76c0 58 -40 68 -267 79
c-305 14 -426 62 -426 219c0 154 157 203 419 203c264 0 424 -66 424 -239h-180c0 77 -77 96 -264 96c-177 0 -219 -17 -219 -69c0 -54 42 -64 246 -76c276 -15 447 -30 447 -207z" />
    <glyph glyph-name="Scommaaccent" unicode="&#x218;" horiz-adv-x="960" 
d="M33 241h180c0 -74 60 -108 288 -108c189 0 246 21 246 76c0 58 -40 68 -267 79c-305 14 -426 62 -426 219c0 154 157 203 419 203c264 0 424 -66 424 -239h-180c0 77 -77 96 -264 96c-177 0 -219 -17 -219 -69c0 -54 42 -64 246 -76c276 -15 447 -30 447 -207
c0 -187 -177 -225 -436 -225c-287 0 -458 49 -458 251zM403 -117h154v-108l-80 -110h-74l56 110h-56v108z" />
    <glyph glyph-name="T" unicode="T" horiz-adv-x="926" 
d="M893 700v-151h-340v-549h-180v549h-340v151h860z" />
    <glyph glyph-name="Tbar" unicode="&#x166;" horiz-adv-x="926" 
d="M893 549h-340v-200h141v-118h-141v-231h-180v231h-159v118h159v200h-340v151h860v-151z" />
    <glyph glyph-name="Tcaron" unicode="&#x164;" horiz-adv-x="926" 
d="M670 864l-207 -80l-207 80v118l207 -80l207 80v-118zM893 700v-151h-340v-549h-180v549h-340v151h860z" />
    <glyph glyph-name="uni0162" unicode="&#x162;" horiz-adv-x="926" 
d="M553 0h-30l-15 -47c60 19 177 28 177 -69c0 -114 -162 -133 -316 -114v85c131 -19 187 0 187 38c0 24 -26 32 -104 14l-59 58l14 35h-34v549h-340v151h860v-151h-340v-549z" />
    <glyph glyph-name="uni021A" unicode="&#x21a;" horiz-adv-x="926" 
d="M893 700v-151h-340v-549h-180v549h-340v151h860zM386 -225v108h154v-108l-80 -110h-74l56 110h-56z" />
    <glyph glyph-name="U" unicode="U" horiz-adv-x="966" 
d="M923 351c0 -243 -133 -361 -440 -361c-308 0 -440 117 -440 361v349h180v-349c0 -98 27 -210 260 -210s260 113 260 210v349h180v-349z" />
    <glyph glyph-name="Uacute" unicode="&#xda;" horiz-adv-x="966" 
d="M288 900l389 80v-118l-389 -80v118zM923 351c0 -243 -133 -361 -440 -361c-308 0 -440 117 -440 361v349h180v-349c0 -98 27 -210 260 -210s260 113 260 210v349h180v-349z" />
    <glyph glyph-name="Ucircumflex" unicode="&#xdb;" horiz-adv-x="966" 
d="M690 782l-207 80l-207 -80v118l207 80l207 -80v-118zM743 700h180v-349c0 -243 -133 -361 -440 -361c-308 0 -440 117 -440 361v349h180v-349c0 -98 27 -210 260 -210s260 113 260 210v349z" />
    <glyph glyph-name="Udieresis" unicode="&#xdc;" horiz-adv-x="966" 
d="M265 944h177v-146h-177v146zM525 944h177v-146h-177v146zM923 351c0 -243 -133 -361 -440 -361c-308 0 -440 117 -440 361v349h180v-349c0 -98 27 -210 260 -210s260 113 260 210v349h180v-349z" />
    <glyph glyph-name="Ugrave" unicode="&#xd9;" horiz-adv-x="966" 
d="M677 900v-118l-389 80v118zM923 351c0 -243 -133 -361 -440 -361c-308 0 -440 117 -440 361v349h180v-349c0 -98 27 -210 260 -210s260 113 260 210v349h180v-349z" />
    <glyph glyph-name="Uhungarumlaut" unicode="&#x170;" horiz-adv-x="966" 
d="M246 912l207 80v-122l-207 -80v122zM513 912l207 80v-122l-207 -80v122zM923 351c0 -243 -133 -361 -440 -361c-308 0 -440 117 -440 361v349h180v-349c0 -98 27 -210 260 -210s260 113 260 210v349h180v-349z" />
    <glyph glyph-name="Umacron" unicode="&#x16a;" horiz-adv-x="966" 
d="M248 910h469v-118h-469v118zM923 351c0 -243 -133 -361 -440 -361c-308 0 -440 117 -440 361v349h180v-349c0 -98 27 -210 260 -210s260 113 260 210v349h180v-349z" />
    <glyph glyph-name="Uogonek" unicode="&#x172;" horiz-adv-x="966" 
d="M743 700h180v-349c0 -206 -95 -322 -311 -353c-21 -16 -45 -36 -45 -61c0 -50 77 -50 160 -50v-117c-187 0 -288 19 -288 117c0 42 24 73 66 103h-22c-308 0 -440 117 -440 361v349h180v-349c0 -98 27 -210 260 -210s260 113 260 210v349z" />
    <glyph glyph-name="Uring" unicode="&#x16e;" horiz-adv-x="966" 
d="M483 771c-157 0 -210 49 -210 132s53 132 210 132c156 0 210 -49 210 -132s-54 -132 -210 -132zM483 850c65 0 101 13 101 53s-36 53 -101 53s-102 -13 -102 -53s37 -53 102 -53zM923 351c0 -243 -133 -361 -440 -361c-308 0 -440 117 -440 361v349h180v-349
c0 -98 27 -210 260 -210s260 113 260 210v349h180v-349z" />
    <glyph glyph-name="V" unicode="V" horiz-adv-x="1032" 
d="M797 700h202l-360 -700h-246l-360 700h202l281 -567z" />
    <glyph glyph-name="W" unicode="W" horiz-adv-x="1528" 
d="M1300 700h195l-276 -700h-249l-206 527l-207 -527h-248l-276 700h194l207 -550l219 550h221l220 -551z" />
    <glyph glyph-name="Wacute" unicode="&#x1e82;" horiz-adv-x="1528" 
d="M958 980v-118l-389 -80v118zM1300 700h195l-276 -700h-249l-206 527l-207 -527h-248l-276 700h194l207 -550l219 550h221l220 -551z" />
    <glyph glyph-name="Wcircumflex" unicode="&#x174;" horiz-adv-x="1528" 
d="M971 782l-207 80l-207 -80v118l207 80l207 -80v-118zM1300 700h195l-276 -700h-249l-206 527l-207 -527h-248l-276 700h194l207 -550l219 550h221l220 -551z" />
    <glyph glyph-name="Wdieresis" unicode="&#x1e84;" horiz-adv-x="1528" 
d="M723 944v-146h-177v146h177zM983 944v-146h-177v146h177zM1300 700h195l-276 -700h-249l-206 527l-207 -527h-248l-276 700h194l207 -550l219 550h221l220 -551z" />
    <glyph glyph-name="Wgrave" unicode="&#x1e80;" horiz-adv-x="1528" 
d="M958 900v-118l-389 80v118zM1300 700h195l-276 -700h-249l-206 527l-207 -527h-248l-276 700h194l207 -550l219 550h221l220 -551z" />
    <glyph glyph-name="X" unicode="X" horiz-adv-x="1098" 
d="M33 0l394 350l-394 350h248l268 -240l267 240h249l-394 -350l394 -350h-249l-267 240l-268 -240h-248z" />
    <glyph glyph-name="Y" unicode="Y" horiz-adv-x="1038" 
d="M429 230l-396 470h217l269 -319l269 319h217l-396 -470v-230h-180v230z" />
    <glyph glyph-name="Yacute" unicode="&#xdd;" horiz-adv-x="1038" 
d="M324 900l389 80v-118l-389 -80v118zM429 230l-396 470h217l269 -319l269 319h217l-396 -470v-230h-180v230z" />
    <glyph glyph-name="Ycircumflex" unicode="&#x176;" horiz-adv-x="1038" 
d="M726 782l-207 80l-207 -80v118l207 80l207 -80v-118zM788 700h217l-396 -470v-230h-180v230l-396 470h217l269 -319z" />
    <glyph glyph-name="Ydieresis" unicode="&#x178;" horiz-adv-x="1038" 
d="M301 944h177v-146h-177v146zM561 944h177v-146h-177v146zM429 230l-396 470h217l269 -319l269 319h217l-396 -470v-230h-180v230z" />
    <glyph glyph-name="Ygrave" unicode="&#x1ef2;" horiz-adv-x="1038" 
d="M713 900v-118l-389 80v118zM429 230l-396 470h217l269 -319l269 319h217l-396 -470v-230h-180v230z" />
    <glyph glyph-name="Z" unicode="Z" horiz-adv-x="876" 
d="M833 700v-151l-532 -398h532v-151h-790v151l531 398h-531v151h790z" />
    <glyph glyph-name="Zacute" unicode="&#x179;" horiz-adv-x="876" 
d="M632 980v-118l-389 -80v118zM833 700v-151l-532 -398h532v-151h-790v151l531 398h-531v151h790z" />
    <glyph glyph-name="Zcaron" unicode="&#x17d;" horiz-adv-x="876" 
d="M645 864l-207 -80l-207 80v118l207 -80l207 80v-118zM833 700v-151l-532 -398h532v-151h-790v151l531 398h-531v151h790z" />
    <glyph glyph-name="Zdotaccent" unicode="&#x17b;" horiz-adv-x="876" 
d="M535 944v-146h-194v146h194zM833 700v-151l-532 -398h532v-151h-790v151l531 398h-531v151h790z" />
    <glyph glyph-name="a" unicode="a" horiz-adv-x="874" 
d="M443 599c246 0 386 -79 388 -302v-297h-172v73c-104 -51 -219 -83 -358 -83c-165 0 -268 53 -268 186c0 153 168 201 355 201c101 0 194 -16 271 -42c0 112 -144 121 -224 121c-77 0 -171 -7 -292 -43l-61 125c120 39 238 61 361 61zM659 183v46c-60 19 -141 36 -250 36
c-128 0 -205 -22 -205 -82c0 -62 57 -67 146 -67c93 0 221 29 309 67z" />
    <glyph glyph-name="aacute" unicode="&#xe1;" horiz-adv-x="874" 
d="M644 869v-118l-389 -80v118zM443 599c246 0 386 -79 388 -302v-297h-172v73c-104 -51 -219 -83 -358 -83c-165 0 -268 53 -268 186c0 153 168 201 355 201c101 0 194 -16 271 -42c0 112 -144 121 -224 121c-77 0 -171 -7 -292 -43l-61 125c120 39 238 61 361 61zM659 183
v46c-60 19 -141 36 -250 36c-128 0 -205 -22 -205 -82c0 -62 57 -67 146 -67c93 0 221 29 309 67z" />
    <glyph glyph-name="abreve" unicode="&#x103;" horiz-adv-x="874" 
d="M450 656c-124 0 -227 40 -227 214h108c0 -81 45 -111 119 -111s118 30 118 111h109c0 -174 -103 -214 -227 -214zM443 599c246 0 386 -79 388 -302v-297h-172v73c-104 -51 -219 -83 -358 -83c-165 0 -268 53 -268 186c0 153 168 201 355 201c101 0 194 -16 271 -42
c0 112 -144 121 -224 121c-77 0 -171 -7 -292 -43l-61 125c120 39 238 61 361 61zM659 183v46c-60 19 -141 36 -250 36c-128 0 -205 -22 -205 -82c0 -62 57 -67 146 -67c93 0 221 29 309 67z" />
    <glyph glyph-name="acircumflex" unicode="&#xe2;" horiz-adv-x="874" 
d="M657 671l-207 80l-207 -80v118l207 80l207 -80v-118zM443 599c246 0 386 -79 388 -302v-297h-172v73c-104 -51 -219 -83 -358 -83c-165 0 -268 53 -268 186c0 153 168 201 355 201c101 0 194 -16 271 -42c0 112 -144 121 -224 121c-77 0 -171 -7 -292 -43l-61 125
c120 39 238 61 361 61zM659 183v46c-60 19 -141 36 -250 36c-128 0 -205 -22 -205 -82c0 -62 57 -67 146 -67c93 0 221 29 309 67z" />
    <glyph glyph-name="adieresis" unicode="&#xe4;" horiz-adv-x="874" 
d="M409 833v-146h-177v146h177zM669 833v-146h-177v146h177zM443 599c246 0 386 -79 388 -302v-297h-172v73c-104 -51 -219 -83 -358 -83c-165 0 -268 53 -268 186c0 153 168 201 355 201c101 0 194 -16 271 -42c0 112 -144 121 -224 121c-77 0 -171 -7 -292 -43l-61 125
c120 39 238 61 361 61zM659 183v46c-60 19 -141 36 -250 36c-128 0 -205 -22 -205 -82c0 -62 57 -67 146 -67c93 0 221 29 309 67z" />
    <glyph glyph-name="agrave" unicode="&#xe0;" horiz-adv-x="874" 
d="M644 789v-118l-389 80v118zM443 599c246 0 386 -79 388 -302v-297h-172v73c-104 -51 -219 -83 -358 -83c-165 0 -268 53 -268 186c0 153 168 201 355 201c101 0 194 -16 271 -42c0 112 -144 121 -224 121c-77 0 -171 -7 -292 -43l-61 125c120 39 238 61 361 61zM659 183
v46c-60 19 -141 36 -250 36c-128 0 -205 -22 -205 -82c0 -62 57 -67 146 -67c93 0 221 29 309 67z" />
    <glyph glyph-name="amacron" unicode="&#x101;" horiz-adv-x="874" 
d="M684 799v-118h-469v118h469zM443 599c246 0 386 -79 388 -302v-297h-172v73c-104 -51 -219 -83 -358 -83c-165 0 -268 53 -268 186c0 153 168 201 355 201c101 0 194 -16 271 -42c0 112 -144 121 -224 121c-77 0 -171 -7 -292 -43l-61 125c120 39 238 61 361 61zM659 183
v46c-60 19 -141 36 -250 36c-128 0 -205 -22 -205 -82c0 -62 57 -67 146 -67c93 0 221 29 309 67z" />
    <glyph glyph-name="aogonek" unicode="&#x105;" horiz-adv-x="874" 
d="M728 -63c0 -50 77 -50 160 -50v-117c-187 0 -288 19 -288 117c0 47 29 80 80 113h-21v73c-104 -51 -219 -83 -358 -83c-165 0 -268 53 -268 186c0 153 168 201 355 201c101 0 194 -16 271 -42c0 112 -144 121 -224 121c-77 0 -171 -7 -292 -43l-61 125
c120 39 238 61 361 61c246 0 386 -79 388 -302v-297h-56c-21 -17 -47 -37 -47 -63zM659 183v46c-60 19 -141 36 -250 36c-128 0 -205 -22 -205 -82c0 -62 57 -67 146 -67c93 0 221 29 309 67z" />
    <glyph glyph-name="aring" unicode="&#xe5;" horiz-adv-x="874" 
d="M450 660c-157 0 -210 49 -210 132s53 132 210 132c156 0 210 -49 210 -132s-54 -132 -210 -132zM450 845c-65 0 -102 -13 -102 -53s37 -53 102 -53s101 13 101 53s-36 53 -101 53zM443 599c246 0 386 -79 388 -302v-297h-172v73c-104 -51 -219 -83 -358 -83
c-165 0 -268 53 -268 186c0 153 168 201 355 201c101 0 194 -16 271 -42c0 112 -144 121 -224 121c-77 0 -171 -7 -292 -43l-61 125c120 39 238 61 361 61zM659 183v46c-60 19 -141 36 -250 36c-128 0 -205 -22 -205 -82c0 -62 57 -67 146 -67c93 0 221 29 309 67z" />
    <glyph glyph-name="atilde" unicode="&#xe3;" horiz-adv-x="874" 
d="M361 759c-42 0 -55 -32 -55 -89h-146c0 111 44 210 157 210c114 0 141 -99 221 -99c43 0 56 32 56 89h146c0 -111 -45 -210 -157 -210c-115 0 -142 99 -222 99zM443 599c246 0 386 -79 388 -302v-297h-172v73c-104 -51 -219 -83 -358 -83c-165 0 -268 53 -268 186
c0 153 168 201 355 201c101 0 194 -16 271 -42c0 112 -144 121 -224 121c-77 0 -171 -7 -292 -43l-61 125c120 39 238 61 361 61zM659 183v46c-60 19 -141 36 -250 36c-128 0 -205 -22 -205 -82c0 -62 57 -67 146 -67c93 0 221 29 309 67z" />
    <glyph glyph-name="ae" unicode="&#xe6;" horiz-adv-x="1514" 
d="M1068 129c118 0 190 22 233 82h170c-39 -150 -185 -221 -403 -221c-143 0 -265 36 -335 117c-106 -83 -280 -117 -418 -117c-174 0 -282 53 -282 186c0 159 168 201 355 201c101 0 194 -16 271 -42c0 112 -144 121 -224 121c-77 0 -171 -7 -292 -43l-61 125
c120 39 238 61 361 61c142 0 249 -26 315 -92c72 64 185 92 320 92c224 0 403 -77 403 -345h-636c19 -94 109 -125 223 -125zM1077 469c-117 0 -199 -23 -226 -106h447c-29 83 -113 106 -221 106zM659 194v35c-60 19 -141 36 -250 36c-128 0 -205 -12 -205 -78
c0 -62 57 -71 146 -71c104 0 221 24 309 78z" />
    <glyph glyph-name="b" unicode="b" horiz-adv-x="892" 
d="M508 599c189 0 351 -80 351 -305s-162 -304 -351 -304c-127 0 -230 35 -294 102v-92h-171v800h171v-303c64 67 167 102 294 102zM451 133c153 0 236 45 236 161c0 117 -83 162 -236 162s-237 -45 -237 -162c0 -116 84 -161 237 -161z" />
    <glyph glyph-name="c" unicode="c" horiz-adv-x="877" 
d="M33 294c0 217 164 305 408 305c220 0 375 -72 403 -245h-175c-23 76 -104 102 -228 102c-147 0 -237 -39 -237 -162c0 -122 90 -161 237 -161c124 0 205 26 228 102h175c-28 -173 -183 -245 -403 -245c-244 0 -408 88 -408 304z" />
    <glyph glyph-name="cacute" unicode="&#x107;" horiz-adv-x="877" 
d="M246 789l389 80v-118l-389 -80v118zM33 294c0 217 164 305 408 305c220 0 375 -72 403 -245h-175c-23 76 -104 102 -228 102c-147 0 -237 -39 -237 -162c0 -122 90 -161 237 -161c124 0 205 26 228 102h175c-28 -173 -183 -245 -403 -245c-244 0 -408 88 -408 304z" />
    <glyph glyph-name="ccaron" unicode="&#x10d;" horiz-adv-x="877" 
d="M648 753l-207 -80l-207 80v118l207 -80l207 80v-118zM441 133c124 0 205 26 228 102h175c-28 -173 -183 -245 -403 -245c-244 0 -408 88 -408 304c0 217 164 305 408 305c220 0 375 -72 403 -245h-175c-23 76 -104 102 -228 102c-147 0 -237 -39 -237 -162
c0 -122 90 -161 237 -161z" />
    <glyph glyph-name="ccedilla" unicode="&#xe7;" horiz-adv-x="877" 
d="M441 133c124 0 205 26 228 102h175c-25 -158 -156 -231 -346 -243l-12 -39c60 19 177 28 177 -69c0 -114 -162 -133 -316 -114v85c131 -19 187 0 187 38c0 24 -26 32 -104 14l-59 58l11 27c-211 14 -349 104 -349 302c0 217 164 305 408 305c220 0 375 -72 403 -245h-175
c-23 76 -104 102 -228 102c-147 0 -237 -39 -237 -162c0 -122 90 -161 237 -161z" />
    <glyph glyph-name="cdotaccent" unicode="&#x10b;" horiz-adv-x="877" 
d="M344 833h194v-146h-194v146zM33 294c0 217 164 305 408 305c220 0 375 -72 403 -245h-175c-23 76 -104 102 -228 102c-147 0 -237 -39 -237 -162c0 -122 90 -161 237 -161c124 0 205 26 228 102h175c-28 -173 -183 -245 -403 -245c-244 0 -408 88 -408 304z" />
    <glyph glyph-name="d" unicode="d" horiz-adv-x="892" 
d="M678 800h171v-800h-171v92c-64 -67 -167 -102 -294 -102c-189 0 -351 79 -351 304s162 305 351 305c127 0 230 -35 294 -102v303zM441 133c153 0 237 45 237 161c0 117 -84 162 -237 162s-236 -45 -236 -162c0 -116 83 -161 236 -161z" />
    <glyph glyph-name="eth" unicode="&#xf0;" horiz-adv-x="949" 
d="M725 771c111 -93 181 -224 181 -385c0 -289 -232 -396 -471 -396s-392 80 -392 288c0 171 97 282 338 282c153 0 269 -65 352 -145c-9 131 -77 223 -176 284l-254 -109l-64 98l171 73c-54 16 -112 25 -171 30l24 149c126 -7 246 -39 348 -93l204 88l63 -98zM423 133
c129 0 230 38 279 122c-88 113 -211 162 -307 162c-107 0 -181 -32 -181 -139c0 -101 67 -145 209 -145z" />
    <glyph glyph-name="dcaron" unicode="&#x10f;" horiz-adv-x="1113" 
d="M678 497v303h171v-800h-171v92c-64 -67 -167 -102 -294 -102c-189 0 -351 79 -351 304s162 305 351 305c127 0 230 -35 294 -102zM899 800h171v-134l-81 -197h-82l51 197h-59v134zM441 133c153 0 237 45 237 161c0 117 -84 162 -237 162s-236 -45 -236 -162
c0 -116 83 -161 236 -161z" />
    <glyph glyph-name="dcroat" unicode="&#x111;" horiz-adv-x="942" 
d="M899 749v-118h-50v-631h-171v92c-64 -67 -167 -102 -294 -102c-189 0 -351 79 -351 304s162 305 351 305c127 0 230 -35 294 -102v134h-259v118h259v51h171v-51h50zM441 133c153 0 237 45 237 161c0 117 -84 162 -237 162s-236 -45 -236 -162c0 -116 83 -161 236 -161z
" />
    <glyph glyph-name="e" unicode="e" horiz-adv-x="877" 
d="M431 129c118 0 190 22 233 82h170c-39 -150 -185 -221 -403 -221c-224 0 -398 88 -398 304c0 217 169 305 408 305c224 0 403 -77 403 -345h-636c19 -94 109 -125 223 -125zM440 469c-117 0 -199 -23 -226 -106h447c-29 83 -113 106 -221 106z" />
    <glyph glyph-name="eacute" unicode="&#xe9;" horiz-adv-x="877" 
d="M634 869v-118l-389 -80v118zM431 129c118 0 190 22 233 82h170c-39 -150 -185 -221 -403 -221c-224 0 -398 88 -398 304c0 217 169 305 408 305c224 0 403 -77 403 -345h-636c19 -94 109 -125 223 -125zM440 469c-117 0 -199 -23 -226 -106h447c-29 83 -113 106 -221 106
z" />
    <glyph glyph-name="ecaron" unicode="&#x11b;" horiz-adv-x="877" 
d="M647 753l-207 -80l-207 80v118l207 -80l207 80v-118zM431 129c118 0 190 22 233 82h170c-39 -150 -185 -221 -403 -221c-224 0 -398 88 -398 304c0 217 169 305 408 305c224 0 403 -77 403 -345h-636c19 -94 109 -125 223 -125zM440 469c-117 0 -199 -23 -226 -106h447
c-29 83 -113 106 -221 106z" />
    <glyph glyph-name="ecircumflex" unicode="&#xea;" horiz-adv-x="877" 
d="M647 671l-207 80l-207 -80v118l207 80l207 -80v-118zM431 129c118 0 190 22 233 82h170c-39 -150 -185 -221 -403 -221c-224 0 -398 88 -398 304c0 217 169 305 408 305c224 0 403 -77 403 -345h-636c19 -94 109 -125 223 -125zM440 469c-117 0 -199 -23 -226 -106h447
c-29 83 -113 106 -221 106z" />
    <glyph glyph-name="edieresis" unicode="&#xeb;" horiz-adv-x="877" 
d="M399 833v-146h-177v146h177zM659 833v-146h-177v146h177zM431 129c118 0 190 22 233 82h170c-39 -150 -185 -221 -403 -221c-224 0 -398 88 -398 304c0 217 169 305 408 305c224 0 403 -77 403 -345h-636c19 -94 109 -125 223 -125zM440 469c-117 0 -199 -23 -226 -106
h447c-29 83 -113 106 -221 106z" />
    <glyph glyph-name="edotaccent" unicode="&#x117;" horiz-adv-x="877" 
d="M537 833v-146h-194v146h194zM431 129c118 0 190 22 233 82h170c-39 -150 -185 -221 -403 -221c-224 0 -398 88 -398 304c0 217 169 305 408 305c224 0 403 -77 403 -345h-636c19 -94 109 -125 223 -125zM440 469c-117 0 -199 -23 -226 -106h447c-29 83 -113 106 -221 106
z" />
    <glyph glyph-name="egrave" unicode="&#xe8;" horiz-adv-x="877" 
d="M634 789v-118l-389 80v118zM431 129c118 0 190 22 233 82h170c-39 -150 -185 -221 -403 -221c-224 0 -398 88 -398 304c0 217 169 305 408 305c224 0 403 -77 403 -345h-636c19 -94 109 -125 223 -125zM440 469c-117 0 -199 -23 -226 -106h447c-29 83 -113 106 -221 106z
" />
    <glyph glyph-name="emacron" unicode="&#x113;" horiz-adv-x="877" 
d="M674 799v-118h-469v118h469zM431 129c118 0 190 22 233 82h170c-39 -150 -185 -221 -403 -221c-224 0 -398 88 -398 304c0 217 169 305 408 305c224 0 403 -77 403 -345h-636c19 -94 109 -125 223 -125zM440 469c-117 0 -199 -23 -226 -106h447c-29 83 -113 106 -221 106
z" />
    <glyph glyph-name="eogonek" unicode="&#x119;" horiz-adv-x="877" 
d="M431 129c118 0 190 22 233 82h170c-31 -120 -130 -189 -279 -212c-21 -17 -46 -37 -46 -62c0 -50 77 -50 160 -50v-117c-187 0 -288 19 -288 117c0 42 24 73 65 103h-15c-224 0 -398 88 -398 304c0 217 169 305 408 305c224 0 403 -77 403 -345h-636
c19 -94 109 -125 223 -125zM440 469c-117 0 -199 -23 -226 -106h447c-29 83 -113 106 -221 106z" />
    <glyph glyph-name="f" unicode="f" horiz-adv-x="642" 
d="M486 684c-98 0 -123 -21 -126 -95h249v-143h-249v-446h-172v446h-155v143h155v44c0 120 72 177 244 177c59 0 90 0 177 -10v-121c-39 3 -79 5 -123 5z" />
    <glyph glyph-name="g" unicode="g" horiz-adv-x="892" 
d="M677 589h172v-495c0 -240 -161 -344 -384 -344c-171 0 -312 32 -369 47v138c69 -13 201 -42 331 -42c177 0 243 68 250 219c-60 -66 -159 -105 -298 -105c-202 0 -346 88 -346 296s144 296 346 296c140 0 239 -39 298 -105v95zM441 150c161 0 236 45 236 153
s-75 153 -236 153s-237 -45 -237 -153s76 -153 237 -153z" />
    <glyph glyph-name="gbreve" unicode="&#x11f;" horiz-adv-x="892" 
d="M441 656c-124 0 -227 40 -227 214h108c0 -81 45 -111 119 -111s118 30 118 111h109c0 -174 -103 -214 -227 -214zM677 589h172v-495c0 -240 -161 -344 -384 -344c-171 0 -312 32 -369 47v138c69 -13 201 -42 331 -42c177 0 243 68 250 219c-60 -66 -159 -105 -298 -105
c-202 0 -346 88 -346 296s144 296 346 296c140 0 239 -39 298 -105v95zM441 150c161 0 236 45 236 153s-75 153 -236 153s-237 -45 -237 -153s76 -153 237 -153z" />
    <glyph glyph-name="gcommaaccent" unicode="&#x123;" horiz-adv-x="892" 
d="M518 814v-108h-154v108l80 110h74l-56 -110h56zM677 589h172v-495c0 -240 -161 -344 -384 -344c-171 0 -312 32 -369 47v138c69 -13 201 -42 331 -42c177 0 243 68 250 219c-60 -66 -159 -105 -298 -105c-202 0 -346 88 -346 296s144 296 346 296c140 0 239 -39 298 -105
v95zM441 150c161 0 236 45 236 153s-75 153 -236 153s-237 -45 -237 -153s76 -153 237 -153z" />
    <glyph glyph-name="gdotaccent" unicode="&#x121;" horiz-adv-x="892" 
d="M538 833v-146h-194v146h194zM677 589h172v-495c0 -240 -161 -344 -384 -344c-171 0 -312 32 -369 47v138c69 -13 201 -42 331 -42c177 0 243 68 250 219c-60 -66 -159 -105 -298 -105c-202 0 -346 88 -346 296s144 296 346 296c140 0 239 -39 298 -105v95zM441 150
c161 0 236 45 236 153s-75 153 -236 153s-237 -45 -237 -153s76 -153 237 -153z" />
    <glyph glyph-name="h" unicode="h" horiz-adv-x="905" 
d="M557 599c157 0 304 -56 306 -273l-2 -326h-172v261c0 125 -42 190 -183 190c-115 0 -239 -59 -292 -121v-330h-171v800h171v-314c84 66 200 113 343 113z" />
    <glyph glyph-name="hbar" unicode="&#x127;" horiz-adv-x="963" 
d="M614 599c157 0 304 -56 306 -273l-2 -326h-172v261c0 125 -42 190 -183 190c-115 0 -239 -59 -292 -121v-330h-171v637h-57v118h57v45h171v-45h252v-118h-252v-151c84 66 200 113 343 113z" />
    <glyph glyph-name="i" unicode="i" 
d="M43 800h171v-149h-171v149zM43 589h171v-589h-171v589z" />
    <glyph glyph-name="dotlessi" unicode="&#x131;" 
d="M43 589h171v-589h-171v589z" />
    <glyph glyph-name="iacute" unicode="&#xed;" 
d="M-66 789l389 80v-118l-389 -80v118zM43 589h171v-589h-171v589z" />
    <glyph glyph-name="icircumflex" unicode="&#xee;" 
d="M129 869l207 -80v-118l-207 80l-207 -80v118zM43 0v589h171v-589h-171z" />
    <glyph glyph-name="idieresis" unicode="&#xef;" 
d="M-89 833h177v-146h-177v146zM171 833h177v-146h-177v146zM43 589h171v-589h-171v589z" />
    <glyph glyph-name="i.loclTRK" 
d="M32 833h194v-146h-194v146zM43 589h171v-589h-171v589z" />
    <glyph glyph-name="igrave" unicode="&#xec;" 
d="M323 789v-118l-389 80v118zM43 589h171v-589h-171v589z" />
    <glyph glyph-name="imacron" unicode="&#x12b;" 
d="M-106 799h469v-118h-469v118zM43 589h171v-589h-171v589z" />
    <glyph glyph-name="iogonek" unicode="&#x12f;" 
d="M226 833v-146h-194v146h194zM144 -63c0 -50 77 -50 160 -50v-117c-187 0 -288 19 -288 117c0 47 29 80 80 113h-53v589h171v-589h-23c-21 -17 -47 -37 -47 -63z" />
    <glyph glyph-name="j" unicode="j" horiz-adv-x="466" 
d="M252 800h172v-149h-172v149zM424 589v-562c0 -180 -54 -277 -244 -277c-59 0 -120 5 -177 15v138c49 -6 79 -10 123 -10c104 0 126 19 126 143v553h172z" />
    <glyph glyph-name="k" unicode="k" horiz-adv-x="968" 
d="M935 589l-382 -241l382 -348h-238l-282 257l-201 -121v-136h-171v800h171v-476l429 265h292z" />
    <glyph glyph-name="kcommaaccent" unicode="&#x137;" horiz-adv-x="968" 
d="M935 589l-382 -241l382 -348h-238l-282 257l-201 -121v-136h-171v800h171v-476l429 265h292zM362 -225v108h154v-108l-80 -110h-74l56 110h-56z" />
    <glyph glyph-name="l" unicode="l" 
d="M43 800h171v-800h-171v800z" />
    <glyph glyph-name="lacute" unicode="&#x13a;" 
d="M-66 1000l389 80v-118l-389 -80v118zM43 800h171v-800h-171v800z" />
    <glyph glyph-name="lcaron" unicode="&#x13e;" 
d="M129 1002l207 80v-118l-207 -80l-207 80v118zM43 0v800h171v-800h-171z" />
    <glyph glyph-name="lcommaaccent" unicode="&#x13c;" 
d="M43 800h171v-800h-171v800zM52 -117h154v-108l-80 -110h-74l56 110h-56v108z" />
    <glyph glyph-name="lslash" unicode="&#x142;" horiz-adv-x="608" 
d="M565 621v-146l-187 -77v-398h-171v328l-164 -68v146l164 68v326h171v-256z" />
    <glyph glyph-name="m" unicode="m" horiz-adv-x="1362" 
d="M1065 599c132 0 252 -56 254 -269l-2 -330h-171v261c0 125 -21 190 -143 190c-90 0 -178 -43 -230 -90c1 -10 1 -20 1 -31l-2 -330h-171v261c0 125 -21 190 -143 190c-99 0 -195 -51 -244 -104v-347h-171v589h171v-96c64 51 160 106 306 106c89 0 173 -26 218 -108
c76 57 181 108 327 108z" />
    <glyph glyph-name="n" unicode="n" horiz-adv-x="905" 
d="M557 599c157 0 304 -56 306 -273l-2 -326h-172v261c0 125 -42 190 -183 190c-115 0 -239 -59 -292 -121v-330h-171v589h171v-103c84 66 200 113 343 113z" />
    <glyph glyph-name="nacute" unicode="&#x144;" horiz-adv-x="905" 
d="M686 869v-118l-389 -80v118zM557 599c157 0 304 -56 306 -273l-2 -326h-172v261c0 125 -42 190 -183 190c-115 0 -239 -59 -292 -121v-330h-171v589h171v-103c84 66 200 113 343 113z" />
    <glyph glyph-name="ncaron" unicode="&#x148;" horiz-adv-x="905" 
d="M699 753l-207 -80l-207 80v118l207 -80l207 80v-118zM557 599c157 0 304 -56 306 -273l-2 -326h-172v261c0 125 -42 190 -183 190c-115 0 -239 -59 -292 -121v-330h-171v589h171v-103c84 66 200 113 343 113z" />
    <glyph glyph-name="ncommaaccent" unicode="&#x146;" horiz-adv-x="905" 
d="M557 599c157 0 304 -56 306 -273l-2 -326h-172v261c0 125 -42 190 -183 190c-115 0 -239 -59 -292 -121v-330h-171v589h171v-103c84 66 200 113 343 113zM375 -225v108h154v-108l-80 -110h-74l56 110h-56z" />
    <glyph glyph-name="eng" unicode="&#x14b;" horiz-adv-x="905" 
d="M557 599c157 0 304 -56 306 -273l-2 -326c0 -173 -82 -259 -278 -259c-59 0 -120 5 -177 15v133c49 -6 79 -10 113 -10c120 0 170 19 170 121v261c0 125 -42 190 -183 190c-115 0 -239 -59 -292 -121v-330h-171v589h171v-103c84 66 200 113 343 113z" />
    <glyph glyph-name="ntilde" unicode="&#xf1;" horiz-adv-x="905" 
d="M403 759c-42 0 -55 -32 -55 -89h-146c0 111 44 210 157 210c114 0 141 -99 221 -99c43 0 56 32 56 89h146c0 -111 -45 -210 -157 -210c-115 0 -142 99 -222 99zM557 599c157 0 304 -56 306 -273l-2 -326h-172v261c0 125 -42 190 -183 190c-115 0 -239 -59 -292 -121v-330
h-171v589h171v-103c84 66 200 113 343 113z" />
    <glyph glyph-name="o" unicode="o" horiz-adv-x="882" 
d="M441 -10c-244 0 -408 88 -408 304c0 217 164 305 408 305c243 0 408 -88 408 -305c0 -216 -165 -304 -408 -304zM441 133c158 0 236 39 236 161c0 123 -78 162 -236 162c-159 0 -237 -39 -237 -162c0 -122 78 -161 237 -161z" />
    <glyph glyph-name="oacute" unicode="&#xf3;" horiz-adv-x="882" 
d="M246 789l389 80v-118l-389 -80v118zM441 -10c-244 0 -408 88 -408 304c0 217 164 305 408 305c243 0 408 -88 408 -305c0 -216 -165 -304 -408 -304zM441 133c158 0 236 39 236 161c0 123 -78 162 -236 162c-159 0 -237 -39 -237 -162c0 -122 78 -161 237 -161z" />
    <glyph glyph-name="ocircumflex" unicode="&#xf4;" horiz-adv-x="882" 
d="M648 671l-207 80l-207 -80v118l207 80l207 -80v-118zM441 599c243 0 408 -88 408 -305c0 -216 -165 -304 -408 -304c-244 0 -408 88 -408 304c0 217 164 305 408 305zM441 133c158 0 236 39 236 161c0 123 -78 162 -236 162c-159 0 -237 -39 -237 -162
c0 -122 78 -161 237 -161z" />
    <glyph glyph-name="odieresis" unicode="&#xf6;" horiz-adv-x="882" 
d="M223 833h177v-146h-177v146zM483 833h177v-146h-177v146zM441 -10c-244 0 -408 88 -408 304c0 217 164 305 408 305c243 0 408 -88 408 -305c0 -216 -165 -304 -408 -304zM441 133c158 0 236 39 236 161c0 123 -78 162 -236 162c-159 0 -237 -39 -237 -162
c0 -122 78 -161 237 -161z" />
    <glyph glyph-name="ograve" unicode="&#xf2;" horiz-adv-x="882" 
d="M635 789v-118l-389 80v118zM441 -10c-244 0 -408 88 -408 304c0 217 164 305 408 305c243 0 408 -88 408 -305c0 -216 -165 -304 -408 -304zM441 133c158 0 236 39 236 161c0 123 -78 162 -236 162c-159 0 -237 -39 -237 -162c0 -122 78 -161 237 -161z" />
    <glyph glyph-name="ohungarumlaut" unicode="&#x151;" horiz-adv-x="882" 
d="M204 801l207 80v-122l-207 -80v122zM471 801l207 80v-122l-207 -80v122zM441 -10c-244 0 -408 88 -408 304c0 217 164 305 408 305c243 0 408 -88 408 -305c0 -216 -165 -304 -408 -304zM441 133c158 0 236 39 236 161c0 123 -78 162 -236 162c-159 0 -237 -39 -237 -162
c0 -122 78 -161 237 -161z" />
    <glyph glyph-name="omacron" unicode="&#x14d;" horiz-adv-x="882" 
d="M206 799h469v-118h-469v118zM441 -10c-244 0 -408 88 -408 304c0 217 164 305 408 305c243 0 408 -88 408 -305c0 -216 -165 -304 -408 -304zM441 133c158 0 236 39 236 161c0 123 -78 162 -236 162c-159 0 -237 -39 -237 -162c0 -122 78 -161 237 -161z" />
    <glyph glyph-name="oslash" unicode="&#xf8;" horiz-adv-x="882" 
d="M601 583c153 -34 248 -124 248 -289c0 -216 -165 -304 -408 -304h-17l-39 -131h-148l44 147c-153 33 -248 124 -248 288c0 217 164 305 408 305h17l39 130h148zM204 294c0 -86 39 -131 118 -150l93 312c-141 -5 -211 -46 -211 -162zM467 133c141 5 210 46 210 161
c0 87 -39 132 -117 151z" />
    <glyph glyph-name="otilde" unicode="&#xf5;" horiz-adv-x="882" 
d="M151 670c0 111 44 210 157 210c114 0 141 -99 221 -99c43 0 56 32 56 89h146c0 -111 -45 -210 -157 -210c-115 0 -142 99 -222 99c-42 0 -55 -32 -55 -89h-146zM441 -10c-244 0 -408 88 -408 304c0 217 164 305 408 305c243 0 408 -88 408 -305
c0 -216 -165 -304 -408 -304zM441 133c158 0 236 39 236 161c0 123 -78 162 -236 162c-159 0 -237 -39 -237 -162c0 -122 78 -161 237 -161z" />
    <glyph glyph-name="oe" unicode="&#x153;" horiz-adv-x="1543" 
d="M1097 129c118 0 190 22 233 82h170c-39 -150 -185 -221 -403 -221c-134 0 -250 32 -322 103c-71 -71 -188 -103 -334 -103c-244 0 -408 88 -408 304c0 217 164 305 408 305c145 0 263 -31 334 -103c71 72 189 103 332 103c224 0 403 -77 403 -345h-636
c19 -94 109 -125 223 -125zM1106 469c-117 0 -199 -23 -226 -106h447c-29 83 -113 106 -221 106zM441 133c158 0 236 39 236 161c0 123 -78 162 -236 162c-159 0 -237 -39 -237 -162c0 -122 78 -161 237 -161z" />
    <glyph glyph-name="p" unicode="p" horiz-adv-x="892" 
d="M508 599c190 0 351 -80 351 -305s-161 -304 -351 -304c-127 0 -229 34 -293 101v-341h-172v839h172v-91c64 66 166 101 293 101zM451 133c153 0 237 45 237 161c0 117 -84 162 -237 162s-236 -45 -236 -162c0 -116 83 -161 236 -161z" />
    <glyph glyph-name="thorn" unicode="&#xfe;" horiz-adv-x="896" 
d="M511 599c176 0 348 -68 348 -305c0 -236 -172 -304 -348 -304c-126 0 -233 33 -297 109v-282h-171v983h171v-310c64 75 171 109 297 109zM451 133c164 0 236 50 236 161s-72 162 -236 162s-237 -51 -237 -162s73 -161 237 -161z" />
    <glyph glyph-name="q" unicode="q" horiz-adv-x="892" 
d="M677 589h172v-839h-172v341c-64 -67 -166 -101 -293 -101c-190 0 -351 79 -351 304s161 305 351 305c127 0 229 -35 293 -101v91zM441 133c153 0 236 45 236 161c0 117 -83 162 -236 162s-237 -45 -237 -162c0 -116 84 -161 237 -161z" />
    <glyph glyph-name="r" unicode="r" horiz-adv-x="708" 
d="M516 599c70 0 119 -10 159 -20v-143c-56 14 -101 20 -151 20c-96 0 -206 -22 -310 -103v-353h-171v589h171v-100c88 79 192 110 302 110z" />
    <glyph glyph-name="racute" unicode="&#x155;" horiz-adv-x="708" 
d="M553 869v-118l-389 -80v118zM516 599c70 0 119 -10 159 -20v-143c-56 14 -101 20 -151 20c-96 0 -206 -22 -310 -103v-353h-171v589h171v-100c88 79 192 110 302 110z" />
    <glyph glyph-name="rcaron" unicode="&#x159;" horiz-adv-x="708" 
d="M566 753l-207 -80l-207 80v118l207 -80l207 80v-118zM516 599c70 0 119 -10 159 -20v-143c-56 14 -101 20 -151 20c-96 0 -206 -22 -310 -103v-353h-171v589h171v-100c88 79 192 110 302 110z" />
    <glyph glyph-name="rcommaaccent" unicode="&#x157;" horiz-adv-x="708" 
d="M516 599c70 0 119 -10 159 -20v-143c-56 14 -101 20 -151 20c-96 0 -206 -22 -310 -103v-353h-171v589h171v-100c88 79 192 110 302 110zM52 -225v108h154v-108l-80 -110h-74l56 110h-56z" />
    <glyph glyph-name="s" unicode="s" horiz-adv-x="880" 
d="M33 207h171c0 -63 65 -87 256 -87c185 0 215 12 215 58c0 45 -28 48 -235 61c-259 15 -386 35 -386 177c0 154 180 183 390 183c222 0 383 -29 383 -191h-172c0 49 -62 61 -221 61c-162 0 -208 -12 -208 -46c0 -37 31 -43 234 -58c230 -17 387 -23 387 -180
c0 -166 -150 -195 -377 -195s-437 29 -437 217z" />
    <glyph glyph-name="sacute" unicode="&#x15b;" horiz-adv-x="880" 
d="M245 789l389 80v-118l-389 -80v118zM33 207h171c0 -63 65 -87 256 -87c185 0 215 12 215 58c0 45 -28 48 -235 61c-259 15 -386 35 -386 177c0 154 180 183 390 183c222 0 383 -29 383 -191h-172c0 49 -62 61 -221 61c-162 0 -208 -12 -208 -46c0 -37 31 -43 234 -58
c230 -17 387 -23 387 -180c0 -166 -150 -195 -377 -195s-437 29 -437 217z" />
    <glyph glyph-name="scaron" unicode="&#x161;" horiz-adv-x="880" 
d="M647 753l-207 -80l-207 80v118l207 -80l207 80v-118zM460 365c230 -17 387 -23 387 -180c0 -166 -150 -195 -377 -195s-437 29 -437 217h171c0 -63 65 -87 256 -87c185 0 215 12 215 58c0 45 -28 48 -235 61c-259 15 -386 35 -386 177c0 154 180 183 390 183
c222 0 383 -29 383 -191h-172c0 49 -62 61 -221 61c-162 0 -208 -12 -208 -46c0 -37 31 -43 234 -58z" />
    <glyph glyph-name="scedilla" unicode="&#x15f;" horiz-adv-x="880" 
d="M847 185c0 -159 -138 -192 -350 -195l-12 -37c60 19 177 28 177 -69c0 -114 -162 -133 -316 -114v85c131 -19 187 0 187 38c0 24 -26 32 -104 14l-59 58l11 27c-190 9 -348 52 -348 215h171c0 -63 65 -87 256 -87c185 0 215 12 215 58c0 45 -28 48 -235 61
c-259 15 -386 35 -386 177c0 154 180 183 390 183c222 0 383 -29 383 -191h-172c0 49 -62 61 -221 61c-162 0 -208 -12 -208 -46c0 -37 31 -43 234 -58c230 -17 387 -23 387 -180z" />
    <glyph glyph-name="scommaaccent" unicode="&#x219;" horiz-adv-x="880" 
d="M33 207h171c0 -63 65 -87 256 -87c185 0 215 12 215 58c0 45 -28 48 -235 61c-259 15 -386 35 -386 177c0 154 180 183 390 183c222 0 383 -29 383 -191h-172c0 49 -62 61 -221 61c-162 0 -208 -12 -208 -46c0 -37 31 -43 234 -58c230 -17 387 -23 387 -180
c0 -166 -150 -195 -377 -195s-437 29 -437 217zM363 -117h154v-108l-80 -110h-74l56 110h-56v108z" />
    <glyph glyph-name="germandbls" unicode="&#xdf;" horiz-adv-x="870" 
d="M668 390c106 -23 169 -75 169 -190c0 -191 -157 -200 -497 -200v143c266 0 325 9 325 78c0 70 -59 79 -325 79v109c162 0 215 7 215 80c0 57 -52 78 -145 78c-126 0 -196 -23 -196 -143v-424h-171v424c0 229 128 286 371 286c186 0 313 -46 313 -196
c0 -51 -22 -92 -59 -124z" />
    <glyph glyph-name="t" unicode="t" horiz-adv-x="672" 
d="M639 446h-279v-170c0 -114 22 -143 126 -143c54 0 84 0 153 10v-138c-57 -10 -122 -15 -201 -15c-152 0 -250 57 -250 187v269h-155v143h155v122l172 49v-171h279v-143z" />
    <glyph glyph-name="tbar" unicode="&#x167;" horiz-adv-x="672" 
d="M639 446h-279v-87h207v-118h-206c5 -85 33 -108 125 -108c54 0 84 0 153 10v-138c-57 -10 -122 -15 -201 -15c-152 0 -250 57 -250 187v64h-101v118h101v87h-155v143h155v122l172 49v-171h279v-143z" />
    <glyph glyph-name="tcaron" unicode="&#x165;" horiz-adv-x="672" 
d="M481 904l-207 -80l-207 80v118l207 -80l207 80v-118zM639 446h-279v-170c0 -114 22 -143 126 -143c54 0 84 0 153 10v-138c-57 -10 -122 -15 -201 -15c-152 0 -250 57 -250 187v269h-155v143h155v122l172 49v-171h279v-143z" />
    <glyph glyph-name="uni0163" unicode="&#x163;" horiz-adv-x="672" 
d="M639 446h-279v-170c0 -114 22 -143 126 -143c54 0 84 0 153 10v-138c-48 -8 -103 -13 -166 -15l-12 -37c60 19 177 28 177 -69c0 -114 -162 -133 -316 -114v85c131 -19 187 0 187 38c0 24 -26 32 -104 14l-59 58l12 31c-105 18 -170 75 -170 181v269h-155v143h155v122
l172 49v-171h279v-143z" />
    <glyph glyph-name="uni021B" unicode="&#x21b;" horiz-adv-x="672" 
d="M639 446h-279v-170c0 -114 22 -143 126 -143c54 0 84 0 153 10v-138c-57 -10 -122 -15 -201 -15c-152 0 -250 57 -250 187v269h-155v143h155v122l172 49v-171h279v-143zM339 -225v108h154v-108l-80 -110h-74l56 110h-56z" />
    <glyph glyph-name="u" unicode="u" horiz-adv-x="905" 
d="M691 589h171v-589h-171v103c-84 -66 -200 -113 -343 -113c-157 0 -304 56 -306 273l2 326h172v-261c0 -125 42 -190 183 -190c115 0 239 59 292 121v330z" />
    <glyph glyph-name="uacute" unicode="&#xfa;" horiz-adv-x="905" 
d="M646 869v-118l-389 -80v118zM691 589h171v-589h-171v103c-84 -66 -200 -113 -343 -113c-157 0 -304 56 -306 273l2 326h172v-261c0 -125 42 -190 183 -190c115 0 239 59 292 121v330z" />
    <glyph glyph-name="ucircumflex" unicode="&#xfb;" horiz-adv-x="905" 
d="M659 671l-207 80l-207 -80v118l207 80l207 -80v-118zM691 589h171v-589h-171v103c-84 -66 -200 -113 -343 -113c-157 0 -304 56 -306 273l2 326h172v-261c0 -125 42 -190 183 -190c115 0 239 59 292 121v330z" />
    <glyph glyph-name="udieresis" unicode="&#xfc;" horiz-adv-x="905" 
d="M411 833v-146h-177v146h177zM671 833v-146h-177v146h177zM691 589h171v-589h-171v103c-84 -66 -200 -113 -343 -113c-157 0 -304 56 -306 273l2 326h172v-261c0 -125 42 -190 183 -190c115 0 239 59 292 121v330z" />
    <glyph glyph-name="ugrave" unicode="&#xf9;" horiz-adv-x="905" 
d="M646 789v-118l-389 80v118zM691 589h171v-589h-171v103c-84 -66 -200 -113 -343 -113c-157 0 -304 56 -306 273l2 326h172v-261c0 -125 42 -190 183 -190c115 0 239 59 292 121v330z" />
    <glyph glyph-name="uhungarumlaut" unicode="&#x171;" horiz-adv-x="905" 
d="M422 881v-122l-207 -80v122zM689 881v-122l-207 -80v122zM691 589h171v-589h-171v103c-84 -66 -200 -113 -343 -113c-157 0 -304 56 -306 273l2 326h172v-261c0 -125 42 -190 183 -190c115 0 239 59 292 121v330z" />
    <glyph glyph-name="umacron" unicode="&#x16b;" horiz-adv-x="905" 
d="M686 799v-118h-469v118h469zM691 589h171v-589h-171v103c-84 -66 -200 -113 -343 -113c-157 0 -304 56 -306 273l2 326h172v-261c0 -125 42 -190 183 -190c115 0 239 59 292 121v330z" />
    <glyph glyph-name="uogonek" unicode="&#x173;" horiz-adv-x="905" 
d="M757 -63c0 -50 77 -50 160 -50v-117c-187 0 -288 19 -288 117c0 47 29 80 80 113h-18v103c-84 -66 -200 -113 -343 -113c-157 0 -304 56 -306 273l2 326h172v-261c0 -125 42 -190 183 -190c115 0 239 59 292 121v330h171v-589h-58c-21 -17 -47 -37 -47 -63z" />
    <glyph glyph-name="uring" unicode="&#x16f;" horiz-adv-x="905" 
d="M452 660c-157 0 -210 49 -210 132s53 132 210 132c156 0 210 -49 210 -132s-54 -132 -210 -132zM452 845c-65 0 -102 -13 -102 -53s37 -53 102 -53s101 13 101 53s-36 53 -101 53zM691 589h171v-589h-171v103c-84 -66 -200 -113 -343 -113c-157 0 -304 56 -306 273l2 326
h172v-261c0 -125 42 -190 183 -190c115 0 239 59 292 121v330z" />
    <glyph glyph-name="v" unicode="v" horiz-adv-x="907" 
d="M684 589h190l-299 -589h-244l-298 589h190l231 -468z" />
    <glyph glyph-name="w" unicode="w" horiz-adv-x="1398" 
d="M1174 589h191l-265 -589h-228l-173 410l-173 -410h-228l-265 589h191l193 -455l180 455h204l180 -454z" />
    <glyph glyph-name="wacute" unicode="&#x1e83;" horiz-adv-x="1398" 
d="M893 869v-118l-389 -80v118zM1174 589h191l-265 -589h-228l-173 410l-173 -410h-228l-265 589h191l193 -455l180 455h204l180 -454z" />
    <glyph glyph-name="wcircumflex" unicode="&#x175;" horiz-adv-x="1398" 
d="M906 671l-207 80l-207 -80v118l207 80l207 -80v-118zM1174 589h191l-265 -589h-228l-173 410l-173 -410h-228l-265 589h191l193 -455l180 455h204l180 -454z" />
    <glyph glyph-name="wdieresis" unicode="&#x1e85;" horiz-adv-x="1398" 
d="M658 833v-146h-177v146h177zM918 833v-146h-177v146h177zM1174 589h191l-265 -589h-228l-173 410l-173 -410h-228l-265 589h191l193 -455l180 455h204l180 -454z" />
    <glyph glyph-name="wgrave" unicode="&#x1e81;" horiz-adv-x="1398" 
d="M893 789v-118l-389 80v118zM1174 589h191l-265 -589h-228l-173 410l-173 -410h-228l-265 589h191l193 -455l180 455h204l180 -454z" />
    <glyph glyph-name="x" unicode="x" horiz-adv-x="958" 
d="M33 0l331 294l-331 295h230l216 -195l216 195h230l-332 -295l332 -294h-230l-216 195l-216 -195h-230z" />
    <glyph glyph-name="y" unicode="y" horiz-adv-x="927" 
d="M705 589h189l-398 -839h-189l119 250h-88l-305 589h190l252 -486z" />
    <glyph glyph-name="yacute" unicode="&#xfd;" horiz-adv-x="927" 
d="M658 869v-118l-389 -80v118zM705 589h189l-398 -839h-189l119 250h-88l-305 589h190l252 -486z" />
    <glyph glyph-name="ycircumflex" unicode="&#x177;" horiz-adv-x="927" 
d="M671 671l-207 80l-207 -80v118l207 80l207 -80v-118zM705 589h189l-398 -839h-189l119 250h-88l-305 589h190l252 -486z" />
    <glyph glyph-name="ydieresis" unicode="&#xff;" horiz-adv-x="927" 
d="M423 833v-146h-177v146h177zM683 833v-146h-177v146h177zM705 589h189l-398 -839h-189l119 250h-88l-305 589h190l252 -486z" />
    <glyph glyph-name="ygrave" unicode="&#x1ef3;" horiz-adv-x="927" 
d="M658 789v-118l-389 80v118zM705 589h189l-398 -839h-189l119 250h-88l-305 589h190l252 -486z" />
    <glyph glyph-name="z" unicode="z" horiz-adv-x="780" 
d="M737 589v-143l-441 -303h441v-143h-694v143l441 303h-441v143h694z" />
    <glyph glyph-name="zacute" unicode="&#x17a;" horiz-adv-x="780" 
d="M584 869v-118l-389 -80v118zM737 589v-143l-441 -303h441v-143h-694v143l441 303h-441v143h694z" />
    <glyph glyph-name="zcaron" unicode="&#x17e;" horiz-adv-x="780" 
d="M597 753l-207 -80l-207 80v118l207 -80l207 80v-118zM737 589v-143l-441 -303h441v-143h-694v143l441 303h-441v143h694z" />
    <glyph glyph-name="zdotaccent" unicode="&#x17c;" horiz-adv-x="780" 
d="M487 833v-146h-194v146h194zM737 589v-143l-441 -303h441v-143h-694v143l441 303h-441v143h694z" />
    <glyph glyph-name="a.001" horiz-adv-x="853" 
d="M808 123c0 -45 0 -97 35 -123h-179c-63 0 -96 15 -96 73c-93 -68 -197 -83 -301 -83c-137 0 -257 49 -257 179c0 156 180 197 355 197c84 0 148 -11 203 -31c0 72 -76 75 -156 75c-77 0 -165 -7 -275 -31l-78 170c120 39 250 61 361 61c246 0 386 -84 388 -313v-174z
M568 196v25c-38 10 -90 15 -159 15c-111 0 -159 -10 -159 -48c0 -33 28 -38 89 -38c81 0 169 20 229 46z" />
    <glyph glyph-name="b.001" horiz-adv-x="846" 
d="M528 610c165 0 308 -68 308 -310s-143 -310 -308 -310c-116 0 -209 38 -268 105v-95h-240v800h241v-295c58 67 151 105 267 105zM428 190c107 0 168 22 168 110s-61 110 -168 110c-102 0 -162 -20 -168 -98v-23c6 -79 66 -99 168 -99z" />
    <glyph glyph-name="e.001" horiz-adv-x="854" 
d="M428 180c76 0 132 24 161 45l235 -40c-50 -119 -189 -195 -396 -195c-245 0 -408 88 -408 310s163 310 408 310c247 0 406 -106 406 -350h-569c17 -58 74 -80 163 -80zM428 440c-76 0 -129 -11 -153 -60h305c-24 49 -76 60 -152 60z" />
    <glyph glyph-name="m.001" horiz-adv-x="1316" 
d="M1068 610c125 0 228 -52 228 -219v-391h-240v283c0 93 -40 117 -108 117c-51 0 -103 -21 -170 -66v-334h-240v283c0 93 -40 117 -108 117c-51 0 -103 -21 -170 -66v-334h-240v600h240v-90c113 69 184 100 300 100c82 0 157 -26 194 -101c117 70 188 101 314 101z" />
    <glyph glyph-name="n.001" horiz-adv-x="858" 
d="M590 610c125 0 248 -42 248 -219v-391h-240v273c0 93 -37 127 -115 127c-61 0 -136 -21 -223 -66v-334h-240v600h240v-80c112 60 224 90 330 90z" />
    <glyph glyph-name="zero" unicode="0" horiz-adv-x="886" 
d="M443 -10c-278 0 -410 128 -410 361c0 232 132 359 410 359c277 0 410 -128 410 -359c0 -232 -133 -361 -410 -361zM443 141c158 0 230 79 230 210c0 130 -72 208 -230 208s-230 -77 -230 -208c0 -132 72 -210 230 -210z" />
    <glyph glyph-name="one" unicode="1" horiz-adv-x="746" 
d="M463 151h240v-151h-660v151h241l1 330c-76 -67 -169 -67 -242 -67v152c103 0 240 0 240 134h180v-549z" />
    <glyph glyph-name="two" unicode="2" horiz-adv-x="860" 
d="M827 490c0 -271 -498 -200 -542 -339h532v-151h-784v91c0 291 614 226 614 385c0 58 -37 83 -192 83s-226 -23 -226 -134h-180c0 233 164 285 396 285c241 0 382 -46 382 -220z" />
    <glyph glyph-name="three" unicode="3" horiz-adv-x="860" 
d="M719 350c67 -32 108 -80 108 -153c0 -155 -141 -207 -387 -207c-243 0 -407 52 -407 275h180c0 -112 83 -124 237 -124c143 0 197 12 197 79c0 70 -54 76 -297 76v108c238 0 297 6 297 76c0 61 -42 79 -197 79c-171 0 -237 -18 -237 -124h-180c0 223 164 275 407 275
c246 0 387 -52 387 -207c0 -73 -41 -121 -108 -153z" />
    <glyph glyph-name="four" unicode="4" horiz-adv-x="900" 
d="M857 266v-152h-140v-114h-180v114h-494v152l494 434h180v-434h140zM237 266h300v254z" />
    <glyph glyph-name="five" unicode="5" horiz-adv-x="860" 
d="M539 472c181 0 288 -85 288 -235c0 -174 -148 -247 -382 -247c-232 0 -412 46 -412 253h180c0 -79 83 -102 237 -102c149 0 197 45 197 116c0 66 -36 112 -173 112c-69 0 -138 -14 -258 -62l-148 29l90 364h619v-143h-485l-45 -149c103 44 178 64 292 64z" />
    <glyph glyph-name="six" unicode="6" horiz-adv-x="886" 
d="M506 472c204 0 337 -68 337 -237c0 -163 -133 -245 -380 -245c-300 0 -420 117 -420 343c0 290 172 377 378 377c174 0 290 -24 375 -42v-143c-99 19 -201 42 -331 42c-142 0 -220 -29 -238 -171c54 42 147 76 279 76zM443 133c170 0 220 44 220 117s-49 116 -220 116
c-154 0 -220 -42 -220 -116c0 -73 61 -117 220 -117z" />
    <glyph glyph-name="seven" unicode="7" horiz-adv-x="783" 
d="M20 700h743v-151c-285 -140 -409 -369 -409 -549h-180c0 180 85 409 340 549h-494v151z" />
    <glyph glyph-name="eight" unicode="8" horiz-adv-x="886" 
d="M707 397c101 -36 146 -100 146 -189c0 -140 -99 -218 -410 -218c-312 0 -410 77 -410 218c0 89 44 153 146 189c-50 30 -76 73 -76 129c0 126 98 184 340 184c241 0 340 -58 340 -184c0 -56 -26 -99 -76 -129zM443 580c-138 0 -177 -19 -177 -68s38 -68 177 -68
c138 0 177 19 177 68s-39 68 -177 68zM443 129c176 0 230 32 230 100c0 66 -53 98 -230 98s-230 -31 -230 -98c0 -68 54 -100 230 -100z" />
    <glyph glyph-name="nine" unicode="9" horiz-adv-x="866" 
d="M413 710c300 0 420 -117 420 -343c0 -290 -172 -377 -378 -377c-174 0 -290 24 -375 42v143c99 -19 201 -42 331 -42c142 0 220 29 238 171c-54 -42 -147 -76 -279 -76c-204 0 -337 68 -337 237c0 163 133 245 380 245zM433 334c154 0 220 42 220 116
c0 73 -61 117 -220 117c-170 0 -220 -44 -220 -117s49 -116 220 -116z" />
    <glyph glyph-name="fraction" unicode="&#x2044;" horiz-adv-x="521" 
d="M478 720l-260 -870h-176l260 870h176z" />
    <glyph glyph-name="asterisk" unicode="*" horiz-adv-x="583" 
d="M43 513l143 70l-143 71l63 109l132 -88l-10 124l126 1l-10 -125l132 88l64 -109l-143 -71l143 -70l-63 -109l-133 88l10 -125h-125l10 125l-133 -88z" />
    <glyph glyph-name="backslash" unicode="\" horiz-adv-x="521" 
d="M43 720h176l260 -870h-176z" />
    <glyph glyph-name="periodcentered" unicode="&#xb7;" 
d="M43 381h171v-134h-171v134z" />
    <glyph glyph-name="bullet" unicode="&#x2022;" horiz-adv-x="402" 
d="M201 208c-108 0 -158 35 -158 113c0 77 50 112 158 112c107 0 158 -35 158 -112c0 -78 -51 -113 -158 -113z" />
    <glyph glyph-name="colon" unicode=":" 
d="M43 434h171v-134h-171v134zM43 134h171v-134h-171v134z" />
    <glyph glyph-name="comma" unicode="," 
d="M43 134h171v-134l-81 -197h-82l51 197h-59v134z" />
    <glyph glyph-name="ellipsis" unicode="&#x2026;" horiz-adv-x="751" 
d="M43 134h171v-134h-171v134zM290 134h171v-134h-171v134zM537 134h171v-134h-171v134z" />
    <glyph glyph-name="exclam" unicode="!" horiz-adv-x="266" 
d="M223 700l-4 -483h-172l-4 483h180zM47 134h171v-134h-171v134z" />
    <glyph glyph-name="exclamdown" unicode="&#xa1;" horiz-adv-x="266" 
d="M47 466v134h171v-134h-171zM223 -100h-180l4 483h172z" />
    <glyph glyph-name="numbersign" unicode="#" horiz-adv-x="1301" 
d="M1238 409h-228l-65 -218h193v-142h-236l-59 -199h-176l59 199h-289l-59 -199h-176l59 199h-198v142h241l65 218h-206v142h248l51 169h176l-51 -169h289l51 169h176l-51 -169h186v-142zM769 191l65 218h-289l-65 -218h289z" />
    <glyph glyph-name="period" unicode="." 
d="M43 134h171v-134h-171v134z" />
    <glyph glyph-name="question" unicode="?" horiz-adv-x="840" 
d="M458 217h-171c0 230 330 141 330 269c0 47 -48 73 -177 73c-146 0 -217 -23 -217 -123h-180c0 222 164 274 387 274c226 0 367 -52 367 -204c0 -214 -322 -157 -339 -289zM287 134h171v-134h-171v134z" />
    <glyph glyph-name="questiondown" unicode="&#xbf;" horiz-adv-x="840" 
d="M553 466h-171v134h171v-134zM382 383h171c0 -230 -330 -141 -330 -269c0 -47 48 -73 177 -73c146 0 217 23 217 123h180c0 -222 -164 -274 -387 -274c-226 0 -367 52 -367 204c0 214 322 157 339 289z" />
    <glyph glyph-name="quotedbl" unicode="&#x22;" horiz-adv-x="531" 
d="M223 720l-14 -320h-152l-14 320h180zM489 720l-14 -320h-152l-14 320h180z" />
    <glyph glyph-name="quotesingle" unicode="'" horiz-adv-x="266" 
d="M223 720l-14 -320h-152l-14 320h180z" />
    <glyph glyph-name="semicolon" unicode=";" 
d="M43 434h171v-134h-171v134zM43 0v134h171v-134l-81 -197h-82l51 197h-59z" />
    <glyph glyph-name="slash" unicode="/" horiz-adv-x="521" 
d="M478 720l-260 -870h-176l260 870h176z" />
    <glyph glyph-name="underscore" unicode="_" horiz-adv-x="1126" 
d="M63 -63h1000v-134h-1000v134z" />
    <glyph glyph-name="braceleft" unicode="{" horiz-adv-x="656" 
d="M43 181v240c88 0 148 0 148 100c0 220 64 279 422 279v-151c-227 0 -285 -20 -285 -198c0 -120 -90 -130 -129 -130v-40c39 0 129 -10 129 -130c0 -180 58 -200 285 -200v-151c-373 0 -422 61 -422 281c0 100 -60 100 -148 100z" />
    <glyph glyph-name="braceright" unicode="}" horiz-adv-x="656" 
d="M613 181c-88 0 -148 0 -148 -100c0 -220 -49 -281 -422 -281v151c227 0 285 20 285 200c0 120 90 130 129 130v40c-39 0 -129 10 -129 130c0 178 -58 198 -285 198v151c358 0 422 -59 422 -279c0 -100 60 -100 148 -100v-240z" />
    <glyph glyph-name="bracketleft" unicode="[" horiz-adv-x="656" 
d="M613 649h-390v-698h390v-151h-570v1000h570v-151z" />
    <glyph glyph-name="bracketright" unicode="]" horiz-adv-x="656" 
d="M613 800v-1000h-570v151h390v698h-390v151h570z" />
    <glyph glyph-name="parenleft" unicode="(" horiz-adv-x="656" 
d="M43 301c0 383 155 499 570 499v-151c-284 0 -390 -65 -390 -348c0 -284 107 -350 390 -350v-151c-415 0 -570 117 -570 501z" />
    <glyph glyph-name="parenright" unicode=")" horiz-adv-x="656" 
d="M613 301c0 -384 -155 -501 -570 -501v151c283 0 390 66 390 350c0 283 -106 348 -390 348v151c415 0 570 -116 570 -499z" />
    <glyph glyph-name="emdash" unicode="&#x2014;" horiz-adv-x="1326" 
d="M63 411h1200v-142h-1200v142z" />
    <glyph glyph-name="endash" unicode="&#x2013;" horiz-adv-x="1126" 
d="M63 411h1000v-142h-1000v142z" />
    <glyph glyph-name="hyphen" unicode="-" horiz-adv-x="926" 
d="M63 411h800v-142h-800v142z" />
    <glyph glyph-name="guillemotleft" unicode="&#xab;" horiz-adv-x="943" 
d="M303 589h233l-260 -295l260 -294h-233l-260 294zM667 589h233l-260 -295l260 -294h-233l-260 294z" />
    <glyph glyph-name="guillemotright" unicode="&#xbb;" horiz-adv-x="966" 
d="M299 589l260 -295l-260 -294h-233l260 294l-260 295h233zM663 589l260 -295l-260 -294h-233l260 294l-260 295h233z" />
    <glyph glyph-name="guilsinglleft" unicode="&#x2039;" horiz-adv-x="579" 
d="M303 589h233l-260 -295l260 -294h-233l-260 294z" />
    <glyph glyph-name="guilsinglright" unicode="&#x203a;" horiz-adv-x="579" 
d="M276 589l260 -295l-260 -294h-233l260 294l-260 295h233z" />
    <glyph glyph-name="quotedblbase" unicode="&#x201e;" horiz-adv-x="491" 
d="M43 0v134h171v-134l-81 -197h-82l51 197h-59zM277 134h171v-134l-81 -197h-82l51 197h-59v134z" />
    <glyph glyph-name="quotedblleft" unicode="&#x201c;" horiz-adv-x="566" 
d="M68 400l64 320h147l-40 -320h-171zM302 400l64 320h147l-40 -320h-171z" />
    <glyph glyph-name="quotedblright" unicode="&#x201d;" horiz-adv-x="543" 
d="M264 720l-64 -320h-147l40 320h171zM498 720l-64 -320h-147l40 320h171z" />
    <glyph glyph-name="quoteleft" unicode="&#x2018;" horiz-adv-x="309" 
d="M45 400l64 320h147l-40 -320h-171z" />
    <glyph glyph-name="quoteright" unicode="&#x2019;" horiz-adv-x="317" 
d="M264 720l-64 -320h-147l40 320h171z" />
    <glyph glyph-name="quotesinglbase" unicode="&#x201a;" 
d="M43 134h171v-134l-81 -197h-82l51 197h-59v134z" />
    <glyph glyph-name="space" unicode=" " horiz-adv-x="457" 
 />
    <glyph glyph-name="cent" unicode="&#xa2;" horiz-adv-x="937" 
d="M533 192c89 8 147 37 166 99h175c-25 -156 -154 -230 -341 -243v-148h-120v148c-212 13 -350 104 -350 302c0 199 138 290 350 303v147h120v-147c187 -13 316 -87 341 -243h-175c-19 62 -77 91 -166 99v-317zM234 350c0 -105 67 -149 179 -159v319
c-112 -10 -179 -54 -179 -160z" />
    <glyph glyph-name="currency" unicode="&#xa4;" horiz-adv-x="942" 
d="M879 344c0 -115 -46 -193 -126 -242l125 -125l-81 -80l-160 160c-50 -12 -105 -17 -166 -17c-58 0 -112 5 -160 15l-158 -158l-81 80l122 122c-83 48 -131 128 -131 245c0 116 47 195 127 244l-118 118l81 80l154 -154c49 12 104 17 164 17c63 0 120 -6 171 -18l155 155
l81 -80l-121 -122c77 -49 122 -127 122 -240zM234 344c0 -122 78 -161 237 -161c158 0 236 39 236 161c0 123 -78 162 -236 162c-159 0 -237 -39 -237 -162z" />
    <glyph glyph-name="dollar" unicode="$" horiz-adv-x="1020" 
d="M957 215c0 -174 -153 -219 -383 -224v-91h-120v91c-246 8 -391 64 -391 250h180c0 -65 46 -99 211 -106v156c-264 18 -370 69 -370 216c0 144 138 196 370 202v91h120v-92c221 -11 353 -80 353 -237h-180c0 63 -52 87 -173 94v-147c238 -14 383 -40 383 -203zM264 498
c0 -49 34 -62 190 -72v141c-153 -2 -190 -20 -190 -69zM574 133c155 4 203 25 203 76c0 52 -32 65 -203 76v-152z" />
    <glyph glyph-name="Euro" unicode="&#x20ac;" horiz-adv-x="866" 
d="M546 659c-136 0 -193 -47 -213 -164h354v-108h-364v-36v-36h364v-108h-355c21 -118 78 -166 214 -166c74 0 147 10 257 30v-151c-110 -20 -183 -30 -284 -30c-229 0 -337 101 -367 317h-89v108h80v36v36h-80v108h89c31 209 139 315 367 315c101 0 174 -10 284 -30v-151
c-110 20 -183 30 -257 30z" />
    <glyph glyph-name="sterling" unicode="&#xa3;" horiz-adv-x="866" 
d="M566 659c-195 0 -209 -70 -193 -235h314v-109h-306c-2 -130 -55 -208 -138 -264h560v-151h-740v151c90 71 144 131 142 264h-142v109h132c-38 252 43 386 324 386c101 0 174 -10 284 -30v-151c-100 20 -163 30 -237 30z" />
    <glyph glyph-name="yen" unicode="&#xa5;" horiz-adv-x="1098" 
d="M1035 800l-359 -426h266v-108h-303v-72h303v-108h-303v-186h-180v186h-301v108h301v72h-301v108h264l-359 426h219l267 -319l267 319h219z" />
    <glyph glyph-name="plus" unicode="+" horiz-adv-x="926" 
d="M863 411v-142h-323v-269h-171v269h-306v142h306v269h171v-269h323z" />
    <glyph glyph-name="minus" unicode="&#x2212;" horiz-adv-x="926" 
d="M63 411h800v-142h-800v142z" />
    <glyph glyph-name="multiply" unicode="&#xd7;" horiz-adv-x="890" 
d="M827 474l-240 -138l240 -139l-71 -123l-311 180l-311 -180l-71 123l240 139l-240 138l71 123l311 -180l311 180z" />
    <glyph glyph-name="divide" unicode="&#xf7;" horiz-adv-x="926" 
d="M377 634h171v-134h-171v134zM63 411h800v-142h-800v142zM377 180h171v-134h-171v134z" />
    <glyph glyph-name="equal" unicode="=" horiz-adv-x="926" 
d="M63 571h800v-142h-800v142zM63 251h800v-142h-800v142z" />
    <glyph glyph-name="notequal" unicode="&#x2260;" horiz-adv-x="926" 
d="M863 429h-286l-54 -178h340v-142h-382l-61 -204h-176l61 204h-242v142h284l54 178h-338v142h380l61 204h176l-61 -204h244v-142z" />
    <glyph glyph-name="greater" unicode="&#x3e;" horiz-adv-x="836" 
d="M63 600l710 -140v-240l-710 -140v151l573 109l-573 109v151z" />
    <glyph glyph-name="less" unicode="&#x3c;" horiz-adv-x="836" 
d="M773 600v-151l-573 -109l573 -109v-151l-710 140v240z" />
    <glyph glyph-name="greaterequal" unicode="&#x2265;" horiz-adv-x="836" 
d="M63 700l710 -144v-217l-710 -145v149l579 104l-579 104v149zM63 0v143h710v-143h-710z" />
    <glyph glyph-name="lessequal" unicode="&#x2264;" horiz-adv-x="836" 
d="M773 700v-149l-579 -104l579 -104v-149l-710 145v217zM63 0v143h710v-143h-710z" />
    <glyph glyph-name="plusminus" unicode="&#xb1;" horiz-adv-x="926" 
d="M540 541h323v-142h-323v-159h-171v159h-306v142h306v159h171v-159zM63 29v142h800v-142h-800z" />
    <glyph glyph-name="approxequal" unicode="&#x2248;" horiz-adv-x="926" 
d="M63 380c0 200 53 320 220 320c179 0 201 -169 326 -169c64 0 91 38 91 169h163c0 -200 -53 -320 -220 -320c-179 0 -201 169 -326 169c-64 0 -91 -38 -91 -169h-163zM63 0c0 200 53 320 220 320c179 0 201 -169 326 -169c64 0 91 38 91 169h163
c0 -200 -53 -320 -220 -320c-179 0 -201 169 -326 169c-64 0 -91 -38 -91 -169h-163z" />
    <glyph glyph-name="asciitilde" unicode="~" horiz-adv-x="926" 
d="M63 180c0 200 53 320 220 320c179 0 201 -169 326 -169c64 0 91 38 91 169h163c0 -200 -53 -320 -220 -320c-179 0 -201 169 -326 169c-64 0 -91 -38 -91 -169h-163z" />
    <glyph glyph-name="logicalnot" unicode="&#xac;" horiz-adv-x="926" 
d="M863 411v-338h-172v196h-628v142h800z" />
    <glyph glyph-name="emptyset" unicode="&#x2205;" horiz-adv-x="1154" 
d="M1089 757l-109 -109c66 -79 100 -182 100 -297c0 -259 -173 -461 -502 -461c-115 0 -211 25 -288 68l-120 -120l-105 105l111 111c-67 79 -101 183 -101 297c0 259 175 459 503 459c115 0 211 -24 287 -67l119 119zM246 351c0 -72 15 -133 45 -182l463 463
c-48 23 -107 35 -176 35c-213 0 -332 -115 -332 -316zM908 351c0 72 -15 133 -44 181l-463 -463c49 -24 108 -36 177 -36c212 0 330 116 330 318z" />
    <glyph glyph-name="infinity" unicode="&#x221e;" horiz-adv-x="1309" 
d="M63 299c0 170 108 283 289 283c129 0 214 -58 303 -174c89 116 173 174 302 174c181 0 289 -113 289 -283c0 -175 -99 -279 -289 -279c-129 0 -214 57 -303 172c-89 -115 -173 -172 -302 -172c-190 0 -289 104 -289 279zM234 299c0 -99 39 -136 135 -136
c60 0 125 25 196 137c-72 113 -137 139 -196 139c-86 0 -135 -44 -135 -140zM744 299c70 -111 134 -136 196 -136c96 0 134 37 134 136c0 96 -48 140 -134 140c-60 0 -124 -26 -196 -140z" />
    <glyph glyph-name="integral" unicode="&#x222b;" horiz-adv-x="999" 
d="M63 -150v143c114 0 281 -8 322 205l53 254c71 350 299 348 498 348v-143c-114 0 -281 8 -323 -205l-52 -254c-71 -350 -299 -348 -498 -348z" />
    <glyph glyph-name="product" unicode="&#x220f;" horiz-adv-x="1309" 
d="M1246 720v-160h-234v-710h-171v710h-373v-710h-171v710h-234v160h1183z" />
    <glyph glyph-name="summation" unicode="&#x2211;" horiz-adv-x="866" 
d="M803 800v-143h-514l354 -332l-354 -332h514v-143h-740v143l354 332l-354 332v143h740z" />
    <glyph glyph-name="radical" unicode="&#x221a;" horiz-adv-x="1356" 
d="M1293 800v-143h-298l-270 -807h-240l-166 358h-256v143h369l169 -351l265 800h427z" />
    <glyph glyph-name="partialdiff" unicode="&#x2202;" horiz-adv-x="989" 
d="M283 800c343 -20 643 -220 643 -554c0 -289 -232 -396 -471 -396s-392 80 -392 288c0 171 97 282 338 282c153 0 269 -65 352 -145c-16 246 -244 357 -494 376zM443 -7c129 0 230 38 279 122c-88 113 -211 162 -307 162c-107 0 -181 -32 -181 -139
c0 -101 67 -145 209 -145z" />
    <glyph glyph-name="percent" unicode="%" horiz-adv-x="1690" 
d="M368 259c-217 0 -305 123 -305 276c0 152 88 275 305 275s306 -123 306 -275c0 -153 -89 -276 -306 -276zM1062 800l-260 -870h-176l260 870h176zM368 402c73 0 134 30 134 133s-61 132 -134 132c-72 0 -134 -29 -134 -132s62 -133 134 -133zM1321 -80
c-217 0 -305 123 -305 276c0 152 88 275 305 275s306 -123 306 -275c0 -153 -89 -276 -306 -276zM1321 63c73 0 134 30 134 133s-61 132 -134 132c-72 0 -134 -29 -134 -132s62 -133 134 -133z" />
    <glyph glyph-name="perthousand" unicode="&#x2030;" horiz-adv-x="2372" 
d="M368 259c-217 0 -305 123 -305 276c0 152 88 275 305 275s306 -123 306 -275c0 -153 -89 -276 -306 -276zM1062 800l-260 -870h-176l260 870h176zM368 402c73 0 134 30 134 133s-61 132 -134 132c-72 0 -134 -29 -134 -132s62 -133 134 -133zM1321 -80
c-217 0 -305 123 -305 276c0 152 88 275 305 275s306 -123 306 -275c0 -153 -89 -276 -306 -276zM2003 -80c-216 0 -305 123 -305 276c0 152 89 275 305 275c218 0 306 -123 306 -275c0 -153 -88 -276 -306 -276zM1321 63c73 0 134 30 134 133s-61 132 -134 132
c-72 0 -134 -29 -134 -132s62 -133 134 -133zM2003 63c73 0 135 30 135 133s-62 132 -135 132c-72 0 -133 -29 -133 -132s61 -133 133 -133z" />
    <glyph glyph-name="arrowup" unicode="&#x2191;" horiz-adv-x="1131" 
d="M566 -110c-328 0 -503 202 -503 461s175 459 503 459c329 0 502 -200 502 -459s-173 -461 -502 -461zM632 30v410l125 -130l96 96l-288 284l-286 -284l95 -96l125 130v-410h133z" />
    <glyph glyph-name="uni2197" unicode="&#x2197;" horiz-adv-x="1131" 
d="M566 -110c-328 0 -503 202 -503 461s175 459 503 459c329 0 502 -200 502 -459s-173 -461 -502 -461zM397 89l290 289l-4 -186l136 6l-2 404l-403 2l-7 -135l186 3l-290 -290z" />
    <glyph glyph-name="arrowright" unicode="&#x2192;" horiz-adv-x="1131" 
d="M566 -110c-328 0 -503 202 -503 461s175 459 503 459c329 0 502 -200 502 -459s-173 -461 -502 -461zM241 284h410l-130 -126l96 -95l284 288l-284 286l-96 -95l130 -126h-410v-132z" />
    <glyph glyph-name="uni2198" unicode="&#x2198;" horiz-adv-x="1131" 
d="M566 810c329 0 502 -202 502 -461s-173 -459 -502 -459c-328 0 -503 200 -503 459s175 461 503 461zM397 611l-94 -93l290 -290l-186 3l7 -135l403 2l2 404l-136 6l4 -186z" />
    <glyph glyph-name="arrowdown" unicode="&#x2193;" horiz-adv-x="1131" 
d="M566 810c329 0 502 -202 502 -461s-173 -459 -502 -459c-328 0 -503 200 -503 459s175 461 503 461zM632 670h-133v-410l-125 130l-95 -96l286 -284l288 284l-96 96l-125 -130v410z" />
    <glyph glyph-name="uni2199" unicode="&#x2199;" horiz-adv-x="1131" 
d="M565 810c328 0 503 -202 503 -461s-175 -459 -503 -459c-329 0 -502 200 -502 459s173 461 502 461zM734 611l-290 -289l4 186l-136 -6l2 -404l403 -2l7 135l-186 -3l290 290z" />
    <glyph glyph-name="arrowleft" unicode="&#x2190;" horiz-adv-x="1131" 
d="M565 -110c-329 0 -502 202 -502 461s173 459 502 459c328 0 503 -200 503 -459s-175 -461 -503 -461zM890 284v132h-410l130 126l-96 95l-284 -286l284 -288l96 95l-130 126h410z" />
    <glyph glyph-name="uni2196" unicode="&#x2196;" horiz-adv-x="1131" 
d="M565 -110c-329 0 -502 202 -502 461s173 459 502 459c328 0 503 -200 503 -459s-175 -461 -503 -461zM734 89l94 93l-290 290l186 -3l-7 135l-403 -2l-2 -404l136 -6l-4 186z" />
    <glyph glyph-name="arrowboth" unicode="&#x2194;" horiz-adv-x="1131" 
d="M566 -110c-328 0 -503 202 -503 461s175 459 503 459c329 0 502 -200 502 -459s-173 -461 -502 -461zM952 349l-214 288l-99 -95l104 -131h-352l104 131l-99 95l-216 -289l216 -285l99 95l-104 131h352l-104 -131l99 -95z" />
    <glyph glyph-name="arrowupdn" unicode="&#x2195;" horiz-adv-x="1131" 
d="M566 -110c-328 0 -503 202 -503 461s175 459 503 459c329 0 502 -200 502 -459s-173 -461 -502 -461zM567 715l-288 -214l95 -100l131 104v-308l-131 104l-95 -100l288 -216l286 216l-96 100l-130 -104v308l130 -104l96 100z" />
    <glyph glyph-name="lozenge" unicode="&#x25ca;" horiz-adv-x="927" 
d="M578 800l286 -450l-286 -450h-228l-287 450l287 450h228zM464 -6l225 356l-225 356l-227 -356z" />
    <glyph glyph-name="at" unicode="@" horiz-adv-x="1233" 
d="M662 810c367 0 508 -131 508 -416v-411h-172v82c-57 -60 -146 -91 -265 -92c-180 -2 -342 59 -342 290c0 230 162 287 342 290c118 2 206 -29 263 -88c-15 184 -200 202 -324 202c-243 0 -438 -105 -438 -399c0 -376 241 -413 677 -413l-10 -143
c-616 0 -838 131 -838 556c0 352 226 542 599 542zM780 116c138 0 210 38 217 131v33c-7 92 -79 130 -217 130c-145 0 -218 -42 -218 -147s73 -147 218 -147z" />
    <glyph glyph-name="ampersand" unicode="&#x26;" horiz-adv-x="1078" 
d="M1035 125l-77 -125c-67 32 -129 61 -186 89c-108 -67 -234 -99 -378 -99c-250 0 -351 79 -351 203c0 128 107 176 211 197c-40 45 -58 90 -58 144c0 115 105 176 298 176c162 0 294 -61 294 -166c0 -95 -94 -149 -252 -190c50 -27 115 -59 196 -96c43 37 81 79 113 123
l154 -58c-32 -52 -68 -98 -106 -137zM494 584c-77 0 -127 -21 -127 -70c0 -28 17 -57 60 -91c107 23 190 53 190 102c0 38 -46 59 -123 59zM401 133c72 0 137 15 196 40c-107 53 -189 97 -251 140c-73 -18 -132 -43 -132 -92c0 -63 73 -88 187 -88z" />
    <glyph glyph-name="paragraph" unicode="&#xb6;" horiz-adv-x="926" 
d="M396 720h172v-870h-172v464c-187 0 -333 12 -333 203c0 192 146 203 333 203zM692 720h171v-870h-171v870z" />
    <glyph glyph-name="section" unicode="&#xa7;" horiz-adv-x="882" 
d="M735 194c58 -34 84 -82 84 -152c0 -170 -171 -203 -367 -203c-222 0 -382 51 -382 221h171c0 -79 69 -95 227 -95c134 0 180 15 180 73c0 62 -31 71 -223 86c-262 18 -340 71 -340 180c0 51 20 99 63 152c-58 34 -85 82 -85 151c0 170 171 203 367 203
c222 0 383 -50 383 -221h-172c0 79 -68 95 -227 95c-133 0 -180 -15 -180 -73c0 -62 31 -72 223 -87c262 -20 340 -69 340 -178c0 -52 -20 -99 -62 -152zM271 413c-82 -119 -15 -140 163 -155c69 -5 128 -12 177 -22c82 119 16 139 -163 154c-69 5 -127 12 -177 23z" />
    <glyph glyph-name="copyright" unicode="&#xa9;" horiz-adv-x="1131" 
d="M566 -110c-328 0 -503 202 -503 461s175 459 503 459c329 0 502 -200 502 -459s-173 -461 -502 -461zM566 -1c238 0 393 124 393 352s-154 350 -393 350s-395 -123 -395 -350c0 -228 157 -352 395 -352zM276 350c0 158 109 221 291 221c169 0 275 -54 289 -189h-144
c-13 61 -84 71 -145 71c-77 0 -149 -15 -149 -103s72 -103 149 -103c61 0 132 10 145 71h144c-14 -135 -120 -189 -289 -189c-182 0 -291 63 -291 221z" />
    <glyph glyph-name="registered" unicode="&#xae;" horiz-adv-x="798" 
d="M399 810c225 0 336 -126 336 -302s-111 -302 -336 -302s-336 126 -336 302s111 302 336 302zM399 286c156 0 256 72 256 222s-100 222 -256 222c-157 0 -256 -72 -256 -222s99 -222 256 -222zM568 543c0 -43 -22 -75 -57 -89l49 -79h-81l-43 71h-110v-71h-68v265h209
c60 0 101 -38 101 -97zM326 583v-80h122c20 0 52 0 52 40s-32 40 -52 40h-122z" />
    <glyph glyph-name="trademark" unicode="&#x2122;" horiz-adv-x="1084" 
d="M479 799v-73h-165v-265h-87v265h-164v73h416zM1021 799v-338h-87v232l-141 -232h-63l-140 232v-232h-87v338h117l142 -239l142 239h117z" />
    <glyph glyph-name="degree" unicode="&#xb0;" horiz-adv-x="737" 
d="M368 259c-217 0 -305 123 -305 276c0 152 88 275 305 275s306 -123 306 -275c0 -153 -89 -276 -306 -276zM368 402c84 0 134 35 134 133s-50 132 -134 132c-83 0 -134 -34 -134 -132s51 -133 134 -133z" />
    <glyph glyph-name="bar" unicode="|" horiz-adv-x="297" 
d="M63 720h171v-870h-171v870z" />
    <glyph glyph-name="brokenbar" unicode="&#xa6;" horiz-adv-x="297" 
d="M63 720h171v-345h-171v345zM63 195h171v-345h-171v345z" />
    <glyph glyph-name="dagger" unicode="&#x2020;" horiz-adv-x="926" 
d="M863 491v-142h-314v-499h-171v499h-315v142h315v229h171v-229h314z" />
    <glyph glyph-name="daggerdbl" unicode="&#x2021;" horiz-adv-x="926" 
d="M863 349h-314v-128h314v-142h-314v-229h-171v229h-315v142h315v128h-315v142h315v229h171v-229h314v-142z" />
    <glyph glyph-name="asciicircum" unicode="^" horiz-adv-x="927" 
d="M864 350h-175l-225 356l-227 -356h-174l287 450h228z" />
    <glyph glyph-name="uni0308" unicode="&#x308;" horiz-adv-x="0" 
d="M-500 833h177v-146h-177v146zM-240 833h177v-146h-177v146z" />
    <glyph glyph-name="uni0307" unicode="&#x307;" horiz-adv-x="0" 
d="M-257 833h194v-146h-194v146z" />
    <glyph glyph-name="gravecomb" unicode="&#x300;" horiz-adv-x="0" 
d="M-63 789v-118l-389 80v118z" />
    <glyph glyph-name="acutecomb" unicode="&#x301;" horiz-adv-x="0" 
d="M-452 789l389 80v-118l-389 -80v118z" />
    <glyph glyph-name="uni030B" unicode="&#x30b;" horiz-adv-x="0" 
d="M-537 801l207 80v-122l-207 -80v122zM-270 801l207 80v-122l-207 -80v122z" />
    <glyph glyph-name="uni0302" unicode="&#x302;" horiz-adv-x="0" 
d="M-270 869l207 -80v-118l-207 80l-207 -80v118z" />
    <glyph glyph-name="uni030C" unicode="&#x30c;" horiz-adv-x="0" 
d="M-270 791l207 80v-118l-207 -80l-207 80v118z" />
    <glyph glyph-name="uni0306" unicode="&#x306;" horiz-adv-x="0" 
d="M-517 870h108c0 -81 45 -111 119 -111s118 30 118 111h109c0 -174 -103 -214 -227 -214s-227 40 -227 214z" />
    <glyph glyph-name="uni030A" unicode="&#x30a;" horiz-adv-x="0" 
d="M-273 660c-157 0 -210 49 -210 132s53 132 210 132c156 0 210 -49 210 -132s-54 -132 -210 -132zM-273 739c65 0 101 13 101 53s-36 53 -101 53s-102 -13 -102 -53s37 -53 102 -53z" />
    <glyph glyph-name="tildecomb" unicode="&#x303;" horiz-adv-x="0" 
d="M-643 670c0 111 44 210 157 210c114 0 141 -99 221 -99c43 0 56 32 56 89h146c0 -111 -45 -210 -157 -210c-115 0 -142 99 -222 99c-42 0 -55 -32 -55 -89h-146z" />
    <glyph glyph-name="uni0304" unicode="&#x304;" horiz-adv-x="0" 
d="M-532 799h469v-118h-469v118z" />
    <glyph glyph-name="uni0312" unicode="&#x312;" horiz-adv-x="0" 
d="M-63 706h-154v108l80 110h74l-56 -110h56v-108z" />
    <glyph glyph-name="uni0326" unicode="&#x326;" horiz-adv-x="0" 
d="M-217 -56h154v-108l-80 -110h-74l56 110h-56v108z" />
    <glyph glyph-name="uni0327" unicode="&#x327;" horiz-adv-x="0" 
d="M-240 -47c60 19 177 28 177 -69c0 -114 -162 -133 -316 -114v85c131 -19 187 0 187 38c0 24 -26 32 -104 14l-59 58l14 35h116z" />
    <glyph glyph-name="uni0328" unicode="&#x328;" horiz-adv-x="0" 
d="M-63 -113v-117c-187 0 -288 19 -288 117c0 47 29 80 80 113h95c-21 -17 -47 -37 -47 -63c0 -50 77 -50 160 -50z" />
    <glyph glyph-name="uni0335" unicode="&#x335;" horiz-adv-x="0" 
d="M-543 399h480v-118h-480v118z" />
    <glyph glyph-name="uni0336" unicode="&#x336;" horiz-adv-x="0" 
d="M-1063 399h1000v-118h-1000v118z" />
    <glyph glyph-name="uni0337" unicode="&#x337;" horiz-adv-x="0" 
d="M-43 720l-260 -870h-176l260 870h176z" />
    <glyph glyph-name="uni0338" unicode="&#x338;" horiz-adv-x="0" 
d="M-71 720l-260 -870h-148l260 870h148z" />
    <glyph glyph-name="acute" unicode="&#xb4;" horiz-adv-x="515" 
d="M63 789l389 80v-118l-389 -80v118z" />
    <glyph glyph-name="breve" unicode="&#x2d8;" horiz-adv-x="580" 
d="M63 870h108c0 -81 45 -111 119 -111s118 30 118 111h109c0 -174 -103 -214 -227 -214s-227 40 -227 214z" />
    <glyph glyph-name="caron" unicode="&#x2c7;" horiz-adv-x="540" 
d="M270 791l207 80v-118l-207 -80l-207 80v118z" />
    <glyph glyph-name="cedilla" unicode="&#xb8;" horiz-adv-x="442" 
d="M202 -47c60 19 177 28 177 -69c0 -114 -162 -133 -316 -114v85c131 -19 187 0 187 38c0 24 -26 32 -104 14l-59 58l14 35h116z" />
    <glyph glyph-name="circumflex" unicode="&#x2c6;" horiz-adv-x="540" 
d="M270 869l207 -80v-118l-207 80l-207 -80v118z" />
    <glyph glyph-name="dieresis" unicode="&#xa8;" horiz-adv-x="563" 
d="M63 833h177v-146h-177v146zM323 833h177v-146h-177v146z" />
    <glyph glyph-name="dotaccent" unicode="&#x2d9;" horiz-adv-x="320" 
d="M63 833h194v-146h-194v146z" />
    <glyph glyph-name="grave" unicode="`" horiz-adv-x="515" 
d="M452 789v-118l-389 80v118z" />
    <glyph glyph-name="hungarumlaut" unicode="&#x2dd;" horiz-adv-x="600" 
d="M63 801l207 80v-122l-207 -80v122zM330 801l207 80v-122l-207 -80v122z" />
    <glyph glyph-name="macron" unicode="&#xaf;" horiz-adv-x="595" 
d="M63 799h469v-118h-469v118z" />
    <glyph glyph-name="ogonek" unicode="&#x2db;" horiz-adv-x="414" 
d="M351 -113v-117c-187 0 -288 19 -288 117c0 47 29 80 80 113h95c-21 -17 -47 -37 -47 -63c0 -50 77 -50 160 -50z" />
    <glyph glyph-name="ring" unicode="&#x2da;" horiz-adv-x="546" 
d="M273 660c-157 0 -210 49 -210 132s53 132 210 132c156 0 210 -49 210 -132s-54 -132 -210 -132zM273 739c65 0 101 13 101 53s-36 53 -101 53s-102 -13 -102 -53s37 -53 102 -53z" />
    <glyph glyph-name="tilde" unicode="&#x2dc;" horiz-adv-x="706" 
d="M63 670c0 111 44 210 157 210c114 0 141 -99 221 -99c43 0 56 32 56 89h146c0 -111 -45 -210 -157 -210c-115 0 -142 99 -222 99c-42 0 -55 -32 -55 -89h-146z" />
    </font>
</defs>
</svg>
